<?xml version="1.0" encoding="UTF-8" standalone="no"?>
<!-- Generator: Adobe Illustrator 18.1.1, SVG Export Plug-In . SVG Version: 6.00 Build 0)  -->

<svg
   xmlns:ns="&amp;ns_sfw;"
   xmlns:dc="http://purl.org/dc/elements/1.1/"
   xmlns:cc="http://creativecommons.org/ns#"
   xmlns:rdf="http://www.w3.org/1999/02/22-rdf-syntax-ns#"
   xmlns:svg="http://www.w3.org/2000/svg"
   xmlns="http://www.w3.org/2000/svg"
   xmlns:sodipodi="http://sodipodi.sourceforge.net/DTD/sodipodi-0.dtd"
   xmlns:inkscape="http://www.inkscape.org/namespaces/inkscape"
   version="1.1"
   id="Layer_1"
   x="0px"
   y="0px"
   viewBox="0 -136 472.61255 309.45255"
   enable-background="new 0 -136 840 590"
   xml:space="preserve"
   inkscape:version="0.91 r13725"
   sodipodi:docname="logo.svg"
   width="472.61255"
   height="309.45255"><defs
     id="defs3446" /><sodipodi:namedview
     pagecolor="#000000"
     bordercolor="#666666"
     borderopacity="1"
     objecttolerance="10"
     gridtolerance="10"
     guidetolerance="10"
     inkscape:pageopacity="1"
     inkscape:pageshadow="2"
     inkscape:window-width="1920"
     inkscape:window-height="1014"
     id="namedview3444"
     showgrid="false"
     fit-margin-top="0"
     fit-margin-left="0"
     fit-margin-right="0"
     fit-margin-bottom="0"
     inkscape:zoom="1.3983051"
     inkscape:cx="236.2"
     inkscape:cy="72.696317"
     inkscape:window-x="0"
     inkscape:window-y="0"
     inkscape:window-maximized="1"
     inkscape:current-layer="Layer_1" /><metadata
     id="metadata3420"><ns:sfw><ns:slices /><ns:sliceSourceBounds
         y="4"
         x="183.4"
         width="473.3"
         height="310"
         bottomLeftOrigin="true" /></ns:sfw><rdf:RDF><cc:Work
         rdf:about=""><dc:format>image/svg+xml</dc:format><dc:type
           rdf:resource="http://purl.org/dc/dcmitype/StillImage" /><dc:title></dc:title></cc:Work></rdf:RDF></metadata><path
     d="M 86.8,-21.889249"
     id="path3422"
     inkscape:connector-curvature="0"
     style="fill:#ffffff" /><g
     id="g3424"
     transform="translate(-183.8,-140.18925)"><path
       d="m 617.3,234.5 c -0.2,-1.3 -0.5,-2.3 -1,-4 l -1.7,0 c 1,3.4 1.7,7.9 1.7,11.7 0,7 -1.5,12.9 -4.4,17.8 -1.5,2.7 -3.7,5 -6.4,7.2 l -0.7,0.5 c -5.2,4 -11.7,7 -18.8,8 -13.7,2 -26.1,-2.5 -33.2,-12.2 -2.5,-3.4 -3.4,-7.9 -3.5,-11.6 1.5,4.5 5,8.9 9.4,11.4 8.4,4.7 23,7.4 36.9,-0.2 15.1,-8.2 18.6,-20.9 18.4,-32.7 l -1.5,0 c 0.2,10.1 -3.4,23.6 -17.8,31.5 -13.2,7.2 -27.3,4.5 -35.3,0.2 -4.9,-2.7 -8.7,-8 -9.2,-13.1 -0.2,-1.5 -0.2,-3 0.2,-4.5 1.5,-6.7 8,-11.9 15.6,-11.7 8,0 11.7,4.5 12.4,8.7 1,6.4 -5.7,14.2 -13.4,12.2 -2.3,-0.7 -4.2,-2.2 -4.9,-3.9 -0.7,-1.5 -0.3,-3 0.8,-4.2 1.3,-1.2 3,-1.3 4.2,-0.8 1.3,0.7 1.8,1.8 1.7,3.4 0,0.3 0.2,0.8 0.7,0.8 0.5,0 0.8,-0.2 0.8,-0.7 0.3,-2.2 -0.5,-4 -2.5,-5 -2,-1 -4.4,-0.5 -6,1 -1.7,1.5 -2,3.5 -1.5,5.7 0.7,2.5 3.2,3.9 4.9,4.7 2.3,1 4.7,1.7 6.9,2 5,0.7 10.2,0.7 15.2,-0.5 2.8,-0.7 5.9,-1.8 8.4,-3 9.9,-4.9 16.3,-12.9 18.3,-23 l -1.7,0 c -2,10.1 -8.2,17.1 -17.4,21.6 -7.5,3.7 -16.3,4.9 -23.5,3.4 3.9,-0.3 8.5,-2 10.9,-5.4 1.5,-2 2.5,-4.4 3,-6.7 9.7,1.3 18.3,-1.3 23,-7.4 1.5,-2 2.3,-4 3,-5.7 l -1.7,0 c -0.5,1.7 -1.3,3.2 -2.5,4.9 -4.4,5.5 -12.2,8 -21.4,6.7 0.5,-3.5 -0.2,-7 -1.8,-10.2 0,-0.2 -0.2,-0.2 -0.2,-0.2 0.5,-0.3 -2.5,-1 -2.5,-1 0.5,0.7 0.8,1.2 1.3,1.8 2.8,5.4 2.3,11.7 -1.3,16.9 -0.7,1 -1.8,2 -3,2.7 3.4,-3 4.5,-7.2 3.9,-10.6 -0.7,-4.5 -4.9,-9.9 -13.9,-9.9 -5,0 -9.5,1.8 -12.9,5.2 -0.5,0.5 -2,2.2 -2,2.2 -2.5,2.7 -3.9,5.2 -5,7.9 -2,4 -4,7.9 -10.7,11.4 -5.7,2.8 -15.4,3.4 -19.3,-0.5 -0.8,-0.8 0.8,-1.7 1.5,-1.5 l 0,0 c 6.9,1.5 16.6,-0.7 21.4,-11.7 2,-4.5 4.9,-10.4 9.4,-13.7 l -2.2,0 c -4,3.4 -6.7,8.9 -8.5,13.2 -3.5,7.9 -9.4,10.9 -14.9,11.2 2.8,-0.7 5.4,-1.8 7,-4 1.7,-2 2,-4.5 2.3,-6.9 0.2,-1.5 0.5,-2.8 1,-4.2 1.7,-4 5.2,-7.4 9.4,-8.7 0,0 0.2,0 0.2,-0.2 0.7,-0.2 1.3,-0.7 1.8,-0.7 l -6.2,0 c -3,0 -6.2,0 -9.2,0 l -22.6,0 c 10.7,3.4 15.6,10.2 15.6,16.1 0,2 -0.7,4 -2,5.7 -0.8,1 -2,1.8 -3.2,2.3 -2,1 -2.3,-0.7 -3.2,-2 -0.5,-1 -1.2,-1.5 -1.3,-2.5 -0.2,-0.7 2.2,-0.2 3.4,-0.7 1.5,-0.7 2.3,-1.7 2.5,-3.2 0.2,-1.8 -1,-5.5 -9.5,-10.2 -15.4,-8.4 -31.8,-4.7 -47.2,1 3.7,-2.5 8.2,-4.9 13.6,-6.5 l -3.7,0 c -0.8,0 -1.7,1 -2.7,1 -0.3,0 -1,-1 -1.7,-1 l -1.8,0 c 0.8,0 1.5,1.3 1,2 -0.5,0.7 -2.7,1.8 -3.5,2 -0.7,0 -2.8,-2.3 -2.7,-2.5 0.3,-0.5 1.2,-1.3 1.8,-1.3 l -2.1,0 c -1.7,1.7 -4.4,1.7 -6.2,2.2 -6.7,1.8 -13.6,0.7 -23,-1 l -6.5,-1.2 0,0 -11.4,0 c -1.7,0 -8.5,0 -8.5,0 -0.2,0 -0.2,0 -0.3,0 l -5.2,0 c -3.4,3.4 -6.2,5.2 -8.9,7.2 -5.9,4.5 -12.4,8.5 -19.4,11.9 -2.7,1.5 -5.7,2.8 -8.9,4 -6.9,2.3 -13.7,3.2 -19.9,2.8 -0.3,0 -0.7,0 -1,0 -0.7,0 -1.5,-0.2 -2.2,-0.2 -1.7,-0.2 -3.2,-0.7 -4.7,-1.2 -2.3,-0.8 -4.5,-1.8 -6.2,-3.4 -3.4,-2.3 -6.2,-5.2 -8.7,-8.2 -1.3,-1.5 -2.5,-3 -3.9,-4.5 -2.8,-3.2 -6,-6.7 -9.7,-8.4 l -3,0 c 2.2,1.7 4.2,2.3 6.2,4 -2.2,-0.2 -5.7,0 -9.5,2.5 -3.2,2 -4.9,5.2 -4.5,8.5 0.2,1.2 0.5,2.2 1,3 -2.7,-1.2 -5.5,-2.7 -7.9,-5 -2.2,-3.7 -2.5,-7.9 -1,-10.7 0.5,-1 1.2,-2.3 2,-2.3 l -2.3,0 c -0.5,0 -0.8,1 -1.2,1.7 -1.2,2.2 -1.3,4.9 -0.8,7.5 -0.2,-0.2 -0.2,-0.3 -0.3,-0.5 -1.3,-2.2 -2.7,-5.4 -2.3,-8.7 l -1.8,0 c 0,1.7 0,1.7 0,2.5 0.2,0.7 1,2.5 0.3,2.3 -1.3,-1 -1.7,-3.2 -2.2,-4.9 l -1.5,0 c 0.8,3.4 2.3,6.4 4.5,8.9 0.8,1 2,2 3,3 0.8,1 1.8,2 2.8,3 2,1.7 4.4,3.2 6.9,4.2 1.3,0.5 2.7,0.8 3.9,1.5 0,0 0,0 0.2,0 1,0.3 1.8,0.5 2.8,0.8 0.7,0.2 2.7,0.3 2.8,1.2 0,0.3 -0.7,0.7 -0.8,0.8 -0.7,0.2 -1,-0.2 -1.3,-0.5 -0.3,-0.3 -1.2,-0.7 -1.5,-0.8 -1.7,-1 -3.4,-1.2 -5.4,-1.3 -6,-0.7 -15.9,-1.2 -20.9,-9.5 -2,-3.4 -2.2,-7.7 -1.2,-11.1 l -3.4,0 c 0.2,1.7 0.8,4 0.8,4 0,0.2 0.2,0.2 0.2,0.3 0,0.2 0,0.5 0,0.7 -1.2,-0.8 -3.2,-1.7 -4.5,-5 l -1.7,0 c 0,0 0.2,0.3 0.2,0.5 l -0.2,0.2 c -0.3,-0.2 -0.5,-0.7 -0.8,-0.7 l -2,0 c 0.5,0 1.2,1.3 1.8,1.8 -0.5,0.7 -1,1.3 -1.3,2 -1.3,-1 -2.2,-2 -2.7,-3.7 l -1.7,0 c 0.5,1.7 1.7,3.9 3.7,5 -0.2,0.3 -0.3,0.8 -0.5,1.2 -3.5,-1 -5.9,-3 -6.5,-6.4 l -1.7,0 c 0.7,3.4 3.5,6.5 7.9,7.7 -0.3,1.7 -0.2,3.5 0.5,5 1,2 3.5,3.5 6.4,4 3,0.5 5.7,-0.2 7.7,-1.8 2.8,3 6.4,4.5 9.7,5.5 -1,4.5 -2,10.1 3.9,12.9 3,1.5 5.7,1.7 7.9,1.2 0.5,1.2 1.8,2.8 4,3.4 3.7,1.2 6.4,-1 6.4,-1 2.2,0.5 4.5,0.3 7,-0.8 0.5,1.3 1.3,2.7 2.3,4 2.7,3.2 6.9,4.9 11.7,4.9 4.7,0 9,-1.8 11.2,-4.7 1.8,-2.3 3,-4.7 3.9,-6.7 0,5 1,9.7 4,11.4 1.2,0.7 2.3,0.8 3.9,0.7 0.7,3.7 3.2,6.5 7.4,8 0.3,0.2 0.7,0.2 1.3,0.3 -0.8,3.9 2.5,5 3.7,5.4 1.2,0.3 2.7,0.2 4,-0.3 0.8,-0.3 1.5,-0.8 2,-1.5 0.7,0.3 1.3,0.5 2,0.7 -0.3,1 -0.2,2.2 0.3,3.2 0.7,1.3 2,2.3 3.2,2.5 1.2,0.2 3,0 4.4,-1 1,-0.7 1.5,-1.7 1.5,-2.8 0.2,0 0.5,0 0.7,0 l 0,0 c 2.2,1.7 5,2.3 7.9,2.2 2,-0.2 3.9,-1 5.2,-2.2 1.2,1.3 3.5,2.2 5.5,2 1.3,0 2.3,-0.5 3.2,-1.2 2.7,6.5 7.5,12.9 17.3,13.6 0.5,0 1.2,0 1.7,0 2.8,5 7,7.4 12.2,7 3.9,-0.3 6,-3.4 7,-5.7 0.7,1.7 2,2.7 3.9,3 1,3.4 5,4.7 8.7,4.4 1.8,-0.2 5.2,-1.3 6.4,-3.5 0.2,-0.3 0.3,-0.8 0.5,-1.2 1.5,1 4,1.8 7.2,1 3.4,-1 4.5,-3.5 4.9,-4.2 0.2,0 0.3,0 0.5,-0.2 l 0.2,0.2 c 2,1.2 4.4,1.3 6.4,0.5 1.8,-0.8 3.4,-2.3 3.7,-4 0.3,-1.8 -0.2,-3.9 -1.3,-5.2 2.2,-0.3 4.5,-1.3 5.4,-4 0.3,-1.3 0.2,-2.8 -0.7,-3.9 14.4,-1.5 21.9,-7.4 25.8,-12.1 0.8,-1 1.3,-1.8 2,-2.8 3.5,4 7.7,6.5 11.4,6.9 2.2,5.5 6.5,8.2 13.7,8.2 3.5,0 6.2,-1 8.2,-2.5 2.7,3.4 7.2,5 11.7,4.2 1.2,-0.2 2.2,-0.5 3.2,-1 6.2,6.7 15.4,7.5 22.3,6 7.7,-1.7 13.4,-6.4 14.6,-12.2 l 0,0 c 3.2,-1.8 5.2,-4 6.2,-5.7 1.7,-2.8 2.7,-6.9 1.2,-9.9 l 0,0 3.7,-3.7 c 1,-1.2 2.2,-2.8 3,-4.2 3,-5 4.5,-11.2 4.7,-18.4 0,-0.2 0.3,-6.9 1.8,-11.9 l -1.7,0 c -0.8,2.2 -1.2,3.2 -1.3,4.5 z m -90.2,7.6 c 0.7,-6 3.4,-9.2 8.2,-9.7 0.2,0 0.2,0 0.3,0 0.7,0 1.3,-0.2 2,-0.2 -2.7,1.8 -4.9,4.4 -6,7.4 -0.7,1.5 -0.8,3 -1,4.5 -0.3,2.2 -0.7,4.4 -2,6.2 -1.5,1.8 -4,2.8 -6.7,3.5 4.2,-1.8 4.7,-6.4 5.2,-11.7 z m -259,-6.2 c 1.2,0.8 2,1.3 2.3,1.5 0.3,1.5 0.7,3 1.5,4.5 -0.7,0.8 -2.8,2.5 -5.4,1.2 -0.8,-0.5 -1.3,-1 -1.3,-1.8 -0.2,-1.7 1.3,-4.2 2.9,-5.4 z m -1,10 c -2.3,-0.3 -4.4,-1.7 -5.2,-3.2 -1.7,-3.4 0.3,-7.4 3,-10.2 0.7,1 1.3,1.8 2,2.5 -1.7,1.3 -3.7,4 -3.5,6.5 0.2,1.3 0.8,2.3 2.2,3 2.8,1.5 5.5,0.2 7,-1.2 0.3,0.3 0.5,0.7 0.8,1.2 -1.4,1.3 -3.8,1.8 -6.3,1.4 z m 71.1,11.9 c -0.5,4.2 -4.2,8.4 -8.2,10.2 -2.8,1.3 -5.7,1.3 -8.4,0.3 -2.8,-1.2 -4.4,-3.7 -4.7,-6.5 -0.2,-1.2 -0.2,-3 0.2,-4.2 0.2,-0.5 0.3,-0.7 0.5,-0.7 0.7,-0.3 1.5,0.2 2.3,0.5 0.5,0.2 -1.2,0.8 -1.3,1.5 -0.5,1 -0.2,2.2 1,3.5 1,1.2 2.5,1.8 4.4,1.8 2.5,0.2 5.2,-0.8 7.4,-1.8 1.3,-0.7 2.5,-1.5 3.9,-2.2 1.7,-1.4 2.7,-3.9 2.9,-2.4 z m -8.9,-3.5 c 1.2,0.7 2.3,1.2 3.7,1.7 0.7,0.2 2.3,0.5 2.7,1.2 l 0,0.2 c 0.2,0.7 -3,2.5 -3.7,2.8 -2.3,1.5 -5.4,2.7 -8.2,2.5 -1.3,0 -2.5,-0.5 -3.2,-1.3 -0.7,-0.8 -0.8,-1.5 -0.7,-2 0.3,-0.8 1.5,-1 2.2,-1.3 0.3,-0.2 0.5,-0.3 0.7,-0.7 0.5,-1.3 -1.3,-1.2 -2.2,-1.3 -1.3,-0.3 -2.7,-0.8 -3.5,-1.8 -0.8,-0.8 -1,-2.2 -0.5,-3.7 0.3,-1 0.8,-1.7 1.5,-1.8 1.3,-0.5 3.5,0.3 4.2,0.8 2.1,1.7 4.5,3.4 7,4.7 z m -18.9,-17.7 0,0 c 0.5,0.3 0.8,0.7 1.3,1.2 -1,-0.2 -2,-0.2 -3,0.2 -0.2,0 -0.5,0.2 -0.7,0.2 -0.2,-0.5 -0.5,-1.3 -0.7,-2 1.7,-0.1 3.1,0.4 3.1,0.4 z m -4.9,-0.5 c 0.3,0.7 0.7,1.7 0.8,2.3 -0.5,0.2 -0.8,0.3 -1.3,0.5 -0.5,-0.8 -1.7,-1.5 -2.7,-2 1.2,-0.5 2.2,-0.7 3.2,-0.8 z m -5.7,2.1 c 0.3,-0.2 0.7,-0.5 1,-0.7 1.3,0.7 2.5,1.7 3,2 -0.7,0.3 -1.2,0.8 -1.7,1.3 -1,-0.8 -2.3,-1.2 -4.2,-1.3 0.6,-0.3 1.1,-0.8 1.9,-1.3 z m -2.8,2.9 c 1.8,0 3.4,0.3 4.2,1 -0.3,0.5 -0.7,1.2 -1,1.8 -0.2,0.3 -0.2,0.8 -0.2,1.2 -0.3,-0.2 -0.7,-0.3 -1,-0.3 -1,-0.2 -2,0 -3,0.5 -0.2,-0.9 -0.1,-2.5 1,-4.2 z m 4.1,9.4 c -0.8,0 -1.8,-0.3 -2.7,-0.7 -1,-0.3 -1.8,-1.3 -2.2,-2.3 -0.3,-1.2 1,-1.5 2.2,-1.3 0.5,0.2 1,0.3 1.3,0.8 0.3,0.5 0.3,1.3 0.7,1.7 0.4,0.8 1.7,1.8 0.7,1.8 z m -12.9,1.6 c 1.5,-0.7 5.2,0.2 6.4,0.2 1.7,0.2 3.4,0.3 4.9,1.2 1.2,0.7 2.3,1.3 1.5,2.5 -1,1.2 -2.7,1.7 -4.2,1.8 -2,0.2 -4.2,-0.2 -5.9,-1 -1.2,-0.7 -3.4,-2.7 -3.2,-4 0,-0.3 0.2,-0.5 0.5,-0.7 z m 0.7,10.6 c -4.5,-2.3 -4.2,-6.2 -3.2,-11.4 0.2,0 0.3,0.2 0.7,0.2 -0.3,2.7 1,5.2 3.7,6.5 2.8,1.5 6.7,1.7 9.5,0.7 -0.3,1.2 -0.3,2.2 0,3.4 l 0,0 c -0.1,0.1 -4.3,3.8 -10.7,0.6 z m 11.6,4.5 c -1.5,-0.5 -2.5,-1.5 -3,-2.5 1.2,-0.5 2.2,-1 2.7,-1.3 0.3,0.7 1,1.5 1.7,2 0.7,0.7 1.7,1.2 2.7,1.5 -1.4,0.6 -2.8,0.8 -4.1,0.3 z m 2.5,-2.8 c -2,-1.8 -2.5,-4.4 -1.2,-7 0.7,-1.3 3,-3.2 3.7,-3.4 0.7,-0.2 1.7,-0.5 0.3,-1.3 -0.2,0 -0.8,-0.7 -1.8,-1.5 l -0.2,-0.2 c -1.5,-1.5 -3,-3.9 -2.2,-6.7 1,-2.8 4.4,-4.7 7.2,-5.2 2,-0.3 3.9,0 5,0.8 1,1.2 2,2.3 3,3.5 -2.3,-0.2 -4.4,1 -5.5,2.7 -1,1.2 -1.5,2.7 -1.7,4.2 0,0.8 0,1.5 0.3,2.3 0.2,0.8 1,1.3 0.2,2 -0.7,0.5 -1.8,0.5 -2.7,1.2 -1.8,1.3 -2.2,4 -1,6 1.5,2.3 3.9,2.5 6,2 0,0.5 0.2,1 0.2,1.5 -3.6,1.9 -7.6,0.9 -9.6,-0.9 z m 9.5,-2.2 c -0.3,0.3 -0.8,0.5 -1.7,0.5 -1.3,0 -2.3,-0.3 -3,-1.5 -0.8,-1.2 -0.8,-3.2 0.7,-4.2 1.2,-0.8 4.5,-1.2 4,-2.7 -0.5,-1.3 -1.3,-2 -1.2,-3.5 0.2,-1.3 0.5,-2.5 1.3,-3.7 0.5,-0.7 2.7,-3 5.9,-1.5 l 0.8,1 c 0.2,0.2 0.3,0.3 0.2,0.5 -0.7,0.2 -1.5,0 -2.2,0.3 -1.2,0.5 -2,1.3 -2.5,2.8 -0.3,1 -0.3,2 -0.2,3 0.2,0.7 0.7,1.2 0.8,1.7 0.2,1 -0.5,1.5 -1,2.3 -0.5,0.8 -1,1.7 -1.3,2.7 -0.2,0.9 -0.1,1.8 -0.6,2.3 z m 29,-0.5 c -0.7,3 -2.3,5.9 -4.4,8.4 -1.8,2.3 -5.9,3.9 -9.9,4 -2.5,0 -6.7,-0.8 -10.4,-4.2 -3,-3 -3.9,-8.5 -2.3,-9.2 0.8,-0.5 0,6.5 6.2,8.9 3,1.2 6.5,1.2 9.7,-0.3 2.3,-1 4.4,-2.7 5.9,-4.7 1,-1.2 1.8,-2.3 2.5,-3.7 0.3,-0.7 0.7,-1.3 0.7,-2 0.2,-0.8 0,-1.2 1,-1 1,0.2 1.7,0.2 1.7,1.2 0,0.7 -0.4,1.7 -0.7,2.6 z m 205.6,-11.1 c -0.5,2.7 -0.8,5.5 -0.7,8.4 0,1.3 0.2,2.7 0.3,3.9 0.2,1.2 0.5,2.3 0.3,3.4 -0.2,0.7 -0.3,1.3 -0.8,2.2 -1.3,1.8 -3.7,3 -5.9,3.9 -4.4,1.8 -9.2,2.5 -14.1,2.3 -2.5,-0.2 -4.9,-0.7 -7.2,-1 5.7,0.7 14.6,0.2 19.9,-7 3.5,-4.9 6.5,-11.6 8.2,-16.1 z m 3.2,21.8 c 0.5,1 1.3,2.3 0.3,3.5 -1,1.2 -3.2,1.7 -4.9,1.5 -0.7,0 -1.2,-0.2 -1.7,-0.3 -1,-0.3 -2.7,-1.2 -2.8,-2.3 -0.3,-1.3 1.2,-2 2.2,-2.5 2,-1.2 3.5,-2.3 4.9,-4 -0.6,0.4 1.6,3.6 2,4.1 z m -17.1,8.4 c 2,1.3 5,1.3 7.2,0.2 1,-0.7 1.2,-1.5 2,-2.2 0.5,-0.7 0.7,-0.5 1.7,-0.3 0.8,0.2 1.5,0 1.8,0.8 0.5,0.8 -0.3,2 -0.8,2.7 -1.2,1.7 -3.4,2.7 -5.4,3.2 -2.5,0.5 -5.4,0 -7.5,-1.3 -0.8,-0.5 -2.8,-1.3 -2.8,-2.3 0,-0.8 1.2,-1.8 1.8,-2.2 0.8,-0.5 1.1,0.9 2,1.4 z m -0.5,-5 c 0.7,-0.5 2.2,-0.5 3,-0.7 0.8,-0.2 2.8,-1.2 3.5,-0.7 1.8,1.2 2.3,4.2 0.2,5.4 -1.5,0.8 -3.9,0.8 -5.4,-0.2 -0.8,-0.7 -2.3,-2.8 -1.3,-3.8 z m -15.5,-10.6 c 0.2,-1 -0.5,-4 0,-4.7 0.2,-0.2 0.3,-0.3 0.5,-0.3 0.5,0 1.3,0.7 3,1 1,0.3 2,0.2 3,0.3 4.4,0.3 8.5,-0.3 12.4,-2.3 4.2,-2.2 6.7,-4.4 8.4,-6.9 -1.8,4.2 -4.4,9.5 -7,13.4 -6,8.2 -17.1,6.9 -21.6,5.9 -0.8,-0.4 0.8,-2.4 1.3,-6.4 z m -41,-31.2 c 10.6,-2.3 21.4,-2.3 31.7,3.2 8.4,4.5 8.9,7.9 8.9,8.9 0,0.8 -0.7,1.7 -1.5,2 -2,0.8 -3.4,0.2 -4.5,-1 -1,-0.8 -1.7,-2 -2.5,-2.8 -5.5,-6.4 -14.7,-9.4 -23.3,-10.1 -2.9,-0.2 -10.5,0.3 -8.8,-0.2 z m -21.1,0 c 0,-0.2 0.2,-0.3 0.7,-0.5 0.2,-0.2 2.3,-1 2.5,-0.8 1.7,1 2.2,2.7 2.2,3.4 -1.2,0.8 -2.5,2.8 -3.7,1 -0.5,-0.8 -1.3,-1.7 -1.7,-2.5 0,-0.4 0,-0.6 0,-0.6 z m -6.2,1.2 c 0.2,-0.2 0.3,-0.2 0.7,-0.3 0.7,-0.2 1.8,-0.7 2.5,-0.5 1,0.2 1.8,1.3 2.3,2 0.3,0.5 1.8,2.3 1.2,3 -0.7,0.7 -1.5,2 -2.3,2.2 -1,0.2 -1.2,-1.8 -1.5,-2.5 -0.7,-1.2 -1.5,-2.2 -2.5,-3.2 -0.2,-0.2 -0.4,-0.5 -0.4,-0.7 z M 433.3,234 c 0.8,-0.5 3.2,0.3 4.2,0.3 1.3,0.2 2.7,0.3 4.2,0.5 1,0.2 2.8,-0.2 3.9,0.2 2.2,0.8 4,2.5 5.2,4.7 0.5,0.8 1,2 1,3 0,1.2 -1.5,2.5 -2.2,3.4 -0.3,0.3 -0.7,1 -1.2,1 -0.3,0.2 -1.7,-0.2 -1.8,-0.7 -0.2,-0.3 0.3,-1 0.3,-1.3 0,-0.5 0,-1 0,-1.5 -0.5,-2.7 -2.5,-5.4 -4.2,-6.4 -1.5,-0.8 -3.4,-1.2 -5.2,-1.2 -1,0 -3.7,1.3 -4.5,0.5 -0.9,-0.1 -0.5,-2.1 0.3,-2.5 z m -1.5,6.7 c 0.3,-1.3 1.2,-2.3 2.7,-2.7 2.3,-0.3 4.9,-0.7 7,0.7 1.3,0.8 3.2,3.2 3.5,5.2 0.3,1.8 -0.5,3 -2.5,2.2 -0.8,-0.3 -0.7,-0.3 -0.8,-1.2 -0.7,-1.5 -2,-2.5 -3.5,-3.4 -1,-0.5 -2.2,-0.5 -3.4,-0.5 -1.3,0.6 -3.5,1.8 -3,-0.3 z m 3.9,1.9 c 1.5,0.2 4.4,1 4.7,2.5 0.3,1.7 -2.8,1.5 -3.9,2.2 -0.8,0.3 -1.8,1.2 -2.7,1.5 -0.7,0.2 -0.7,0 -1.3,-0.3 -0.5,-0.3 -2.2,-0.7 -2.3,-1.2 l 0,0 c -0.3,-0.8 1,-2.8 1.7,-3.4 0.7,-1 2.3,-1.3 3.8,-1.3 z m -3.7,7.5 c 0.2,0.8 -1.7,2 -2.3,2.5 -1.3,0.8 -2.3,1.3 -3,-0.3 l 0,-0.2 c 0.2,-0.7 1.8,-2.8 2.3,-3.2 0.7,-0.5 2,0.2 2.7,0.7 -0.1,0 0.1,0.2 0.3,0.5 z M 418.7,232 c 0.2,-0.2 0.2,-0.2 0.3,-0.2 1.2,-0.5 3.7,0 4.9,0.2 2,0.3 2.8,0.3 2,2.3 -0.3,1 -1,1.8 -1.8,2.3 -1.3,0.8 -3.2,1.2 -4.5,0.8 -0.7,-0.2 -1.2,-0.7 -1.3,-1.5 -0.4,-0.9 -0.4,-3 0.4,-3.9 z m -5.5,0.7 c 0.7,-1 3.2,-1.5 3.9,-0.3 0.5,1.2 -0.7,2.8 -0.3,4 0.3,1.3 1.2,2.2 2.5,2.5 1.8,0.5 4.4,0.2 6,-1 1.3,-1 1.8,-2.3 2.3,-3.7 0.3,-0.7 0.5,-1.2 1.3,-1.2 3.5,-0.7 1.7,3.7 0.8,5.2 -1,1.5 -2.2,2.5 -3.7,3.2 -2.3,1 -5.2,1 -8,0.2 -2.5,-0.8 -4,-2.8 -4.5,-5.2 -0.5,-1.2 -1,-2.9 -0.3,-3.7 z m 14.1,9.4 c -0.8,1.2 -1.8,2.3 -3.2,3.5 -0.8,0.8 -2.2,2 -3,0.5 -0.5,-1 -0.7,-2 0,-2.5 0.2,-0.2 0.3,-0.2 0.5,-0.3 1.7,-0.3 3.2,-0.2 4.7,-0.8 0.5,-0.1 0.8,-0.3 1,-0.4 z m -8.6,6.2 c -0.8,0.2 -1.7,0.3 -2.5,0.2 -1.7,-0.2 -2.8,-1.2 -2.8,-2.7 0,-1 0.7,-2.7 1.8,-3.2 1.2,-0.5 3.5,0 4,1 0,0.2 0.2,2 0.3,3.2 0.6,1.1 0.4,1.1 -0.8,1.5 z m -41.8,7.5 c 0.7,-2.8 2.7,-5.4 5.7,-6.9 3.7,-2 8,-2.5 12.4,-1.3 5,1.3 18.9,4.9 27.3,1.2 l 0,0 0,0 c 1.2,-0.5 2.2,-1.2 3,-1.8 2.5,-2.3 4.2,-4.9 5.4,-7.2 -1.2,6.5 -4.9,13.1 -11.2,15.7 -5.5,2.2 -12.4,3 -18.8,2 -4.7,-0.7 -9.5,-1.3 -14.1,0.2 -3.4,1.2 -5.4,3.7 -5.7,6.7 -0.3,2 0.2,4.2 1.3,5.9 -4.8,-3.6 -6.7,-9.5 -5.3,-14.5 z m 35.6,8.1 c -0.2,-1 -0.5,-1.8 -1,-2.8 -0.7,-1.3 -1.5,-1.8 0.3,-2.2 0.3,0 2.3,-0.7 2.5,-0.3 2.2,2.2 2.7,5.7 2,6.5 -0.7,0.7 -2,1.8 -3,2 -1.4,-0.1 -0.6,-2.4 -0.8,-3.2 z m 7.6,15.4 c 5.7,0.2 11.4,-0.2 16.8,-1.7 2.7,-0.8 5.4,-1.5 7.9,-2.7 1.3,-0.7 2.7,-0.7 3.9,-2.3 l 1.3,0 0,-0.5 c 1.7,-1.7 3,-3.7 4.2,-5.7 l -0.3,0 c 0,0 -0.2,0 -0.2,-0.2 1,-1.8 1.5,-3 1.7,-4.5 0.2,-0.8 0.2,-1.8 0.2,-2.8 -0.2,-1.2 -0.8,-1.7 0.5,-2.2 5,-2 7,-2.8 7.2,1.8 0.2,4.7 -1.5,9.4 -4.5,12.9 -2,2.3 -4.4,4.2 -7,5.7 -11.7,6.7 -26.1,6.7 -39.2,3.7 -2.2,-0.5 -4.2,-1.2 -6.2,-1.8 -1.8,-0.7 -2,-1.8 0.2,-1.7 1.5,0.2 3.2,0.8 4.7,1.2 2.6,0.4 5.8,0.8 8.8,0.8 z m -8.9,-3.5 c 0,-0.7 0.2,-1.2 0.7,-1.7 l 0.2,-0.2 c 0.8,-0.3 3,-0.3 3.7,0.3 0.7,0.8 -0.2,2.5 -1,3 -0.7,0.3 -2,0 -2.8,-0.3 -0.8,-0.3 -0.8,-0.3 -0.8,-1.1 z m 5.9,1.8 c 0.2,-0.8 0.2,-1.8 0.3,-2.7 0.2,-0.5 0,-0.7 0.2,-0.8 0,0 0.2,-0.2 0.5,-0.3 1.2,-0.5 3,-0.7 3.5,0.3 0.3,0.8 0.7,2.8 0,3.5 -0.5,0.5 -4.7,0.3 -4.5,0 z m 6,-4.5 c 0.2,-0.2 0.3,-0.3 1,-0.5 1.5,-0.7 3.7,-2 4.7,-0.3 0.5,0.7 0.5,1.8 0.5,2.7 0,1.2 -0.2,2.3 -1.3,2.7 -1.2,0.5 -3.9,0.8 -4.5,-0.3 -0.3,-0.7 -0.2,-2.5 -0.2,-3.4 -0.2,-0.4 -0.2,-0.8 -0.2,-0.9 z m 28.8,-8.1 c 0,0.2 0,0.3 0,0.5 -0.3,1.5 -2,3 -3.4,3.5 -1,0.2 -1.3,-1.8 -2.2,-3 -0.7,-1 -3,-2.2 -2.3,-3.5 0.5,-1.3 3.4,-1.8 4.5,-1.2 1.2,0.9 3.4,2.2 3.4,3.7 z m -2.7,-5.3 c 0.7,-0.7 2,-1.7 3.2,-1.8 1.7,-0.3 1.5,1.2 1.3,2.5 0,0.5 -0.2,2.2 -0.8,2.5 -0.8,0.3 -1.5,-1 -2,-1.5 -0.7,-0.6 -2,-1.1 -1.7,-1.7 z m -4.8,6.7 c 0.8,1.2 2,2.3 2.3,3.7 0.2,0.3 0,0.8 -0.2,1.2 -0.5,1 -1.8,1.7 -3,2.2 -1,0.5 -0.8,-0.8 -1,-1.3 -0.3,-1.7 -1.3,-3.2 -2.2,-4.7 -0.5,-0.7 -1.2,-1.3 -0.8,-2.2 0.3,-0.7 1.8,-1.2 2.5,-1 1,0.1 1.9,1.4 2.4,2.1 z m -3,5.7 c 0.3,1.7 0,3 -3.2,3.7 -2.2,0.5 -2.3,-3.7 -3,-5.2 -0.5,-0.8 -1.2,-1.5 -0.5,-2.5 0.7,-0.8 2.7,-2.2 3.9,-1.7 1.4,1 2.4,4.2 2.8,5.7 z m -6.7,4.3 c 0,0.2 -0.2,0.2 -0.3,0.3 -0.8,0.7 -2.3,0.8 -3.2,0.5 -0.7,-0.3 -0.5,-3.4 -0.7,-4.2 -0.2,-0.5 -1,-1.7 -0.7,-2.3 0.3,-0.7 2,-1.3 2.7,-1.2 1,0.3 1.3,1.7 1.7,2.5 0.5,1.2 1.5,3.1 0.5,4.4 z m 29.4,-21.3 c 0,-0.3 0.2,-0.7 0.2,-0.8 0.5,-0.7 1.5,-0.7 2.7,-0.8 2.3,-0.2 8.2,-1 9,0.8 0.7,1.5 0.2,4 0,5.7 -0.2,2 -0.2,4 -1,5.9 -4.5,10.6 -12.7,17.6 -24.6,20.8 -12.6,3.4 -27.5,2.2 -39.4,-2.5 -1.8,-0.7 -3.7,-1.5 -5.4,-2.3 -1.8,-1 -2.7,-2.3 0.2,-1.3 6.9,2.3 14.6,3.7 22.4,3.9 4.2,0 8.5,-0.3 12.6,-1.5 3.9,-1 8.2,-2.5 11.7,-4.5 7,-4 12.6,-10.7 12.4,-18.4 -0.1,-1.8 -0.8,-3.4 -0.8,-5 z m 14.6,-0.8 c 0.3,-0.2 0.7,-0.2 1,0 1.3,0.2 4.9,2.3 6.5,3.5 2.3,1.7 4.5,3.9 5.9,6.2 0.7,1.2 1.3,2.5 1.7,4 0.2,0.8 0,3.9 -0.8,2.8 -0.7,-0.8 -2.7,-2.8 -4.4,-3.5 -3.5,-1.2 -7.9,-1 -11.6,0.8 -1.5,0.7 -1,-0.8 -0.7,-1.7 0.8,-2.2 1.2,-4.5 1.2,-6.9 0.2,-1.3 -0.5,-4.5 1.2,-5.2 z m -3.2,39.2 c -1.8,1.3 -4.4,1.7 -6.5,1.2 -2,-0.3 -4,-1.7 -2.3,-3.7 0.7,-1 2.7,-0.3 4,-0.7 1.2,-0.2 2.3,-0.5 3.4,-1 0.7,-0.3 1.3,-1.3 2.2,-1.3 4.1,-0.7 0.7,4.5 -0.8,5.5 z m 0.9,4.7 c -1.2,0.7 -4,1 -5,-0.2 -0.5,-0.5 -0.3,-1.2 0,-1.5 0.3,-0.3 0.7,-0.5 1.2,-0.5 1,-0.2 1.8,-0.5 2.8,-0.8 0.7,-0.3 1.3,-1 2,-0.5 1.2,1 0,3 -1,3.5 z m -24.5,0 0.2,0 c 1.3,-0.2 2.7,0 3.9,0 0.5,0 1.2,0 1.7,0.3 2,1.8 1.3,5 -1.8,5.5 -1.5,0.2 -3.5,-0.2 -4.7,-1.3 -0.8,-0.8 -0.1,-3.7 0.7,-4.5 z m -1.8,-10 c 1,-0.8 3.4,-0.8 4.7,-1.2 1.3,-0.3 2.8,-0.7 4.2,-0.2 1,0.3 1.3,1.2 1.5,2 0,0.5 0,1.2 -0.2,1.7 -0.7,2.3 -3,3.7 -5.7,3 -1.7,-0.5 -6.5,-3.8 -4.5,-5.3 z m 7.5,8.8 c -1.2,0.2 -2.7,0.2 -3.9,-0.3 -0.5,-0.2 -2.7,-1.5 -1.3,-2.3 0.3,-0.2 2.3,0.5 2.8,0.7 1.3,0 2.7,-0.2 3.9,-0.8 2,-1.2 3,-3.5 2.7,-5.7 -0.3,-1.7 -1.7,-2.3 -2.3,-3.5 -0.3,-1 2.7,-0.5 2.8,-0.3 1,0.5 1.7,1.5 2.2,2.3 1,2.2 0.8,5.2 -0.3,6.7 -1.6,1.7 -4.2,2.9 -6.6,3.2 z m 5.4,-0.3 c 0.7,-0.3 1.5,-1.7 2.2,-1.8 0.7,-0.2 1.3,0.7 2,0.8 1.5,0.7 3.2,0.3 2,2.7 -0.7,1.3 -2.3,2.7 -3.5,3 -1.5,0.3 -3.2,0 -4.4,-0.7 -0.8,-0.5 -1.7,-1.5 -1.8,-2.5 1.1,-0.5 2.3,-0.8 3.5,-1.5 z m 7.3,-7.7 c -0.8,0.2 -2,0.3 -2.8,0.2 -1.3,-0.5 -1,-1.5 -1.5,-2.7 -0.5,-1 -1.8,-2.3 -2.2,-3.4 -0.2,-1 1.3,-1.8 3,-3.2 1.3,-1.2 2.5,-2 3.5,-2.3 0.7,-0.2 -0.7,1.8 1,5.2 0.7,1.3 2,2.2 2.7,3.4 1.2,1.8 -2,2.5 -3.7,2.8 z m -28.4,8.9 c -1.3,1.2 -8.5,3.7 -7.9,0.3 0.3,-1.7 1.8,-3.2 2.3,-5 0.3,-1 0,-3 1,-3.2 3,-0.5 6.2,-0.2 6.4,2.7 0.3,2 -0.5,4.2 -1.8,5.2 z m -20.8,-7.1 c -1,1.2 -2.8,1.7 -4.5,2 -4.2,0.5 -7.2,-1.7 -9.4,-4.7 -1,-1.3 -2.5,-3.4 -2.7,-5 -0.3,-1.5 7,3 10.2,3.9 1.3,0.3 2.5,0.8 3.9,1.2 1,0.3 2.3,0.3 2.8,0.8 0.4,0.5 0.4,1 -0.3,1.8 z M 409,276.3 c -1,0.5 -2.7,0.3 -3.2,-0.8 -1.2,-2.2 3.4,-2.8 4.2,-1.7 0.9,0.9 0,2 -1,2.5 z m -2.5,-8.9 c -0.7,-0.5 -0.7,-1.5 -1.2,-2.2 -0.5,-0.8 -1.3,-2.2 -2,-3.2 -0.7,-0.8 -1.2,-1.2 -1.8,-2 -0.8,-1.3 0.3,-0.8 2,-0.8 1.5,0.2 3.5,-0.2 5,0.3 1.7,0.8 2.3,2.8 2.7,4.4 0.3,1.5 0.2,2.7 -0.5,3.5 -0.7,0.8 -3.5,0.5 -4.2,0 l 0,0 z m 9.9,-9.4 0,0 c 1,-0.3 2.5,-1.5 3.7,-0.8 0.8,0.5 1.5,1.8 1.3,2.7 -0.2,1.3 -1.5,2.8 -3,3.2 -0.5,-0.8 -0.3,-1.8 -0.8,-2.8 -0.4,-0.8 -1.5,-1.6 -1.2,-2.3 z m 5,-1.7 0,0 c 0.2,-0.5 1.8,-1.3 2.2,-1.7 0.3,-0.2 0.8,-1 1.2,-1 1.3,-0.3 1.8,1 1.2,1.8 -0.7,0.8 -1.5,1.8 -2.3,2.5 -0.5,0.3 -0.7,0.7 -1.3,0.3 -0.5,-0.2 -1.1,-1.4 -1,-1.9 z m -40,15.4 c -3.2,0.2 -6.2,-0.2 -9,-0.8 -1,-1.5 -2.2,-3.5 -1.5,-5.4 0.5,-1.3 2,-2.3 4.4,-3.2 0.7,3.6 2.7,7.1 6.1,9.4 z M 375.5,255 c 0,0.2 -0.2,0.3 -0.2,0.5 -0.2,1 -0.3,2 -0.5,2.8 -0.2,0 -0.2,0 -0.3,0 0,-1 -0.2,-2.2 -0.5,-4 0.5,0.2 1,0.5 1.5,0.7 z m -0.6,4.8 c 0,0.3 0,0.7 0.2,1 -3,1 -4.9,2.3 -5.7,4.2 -0.5,1.5 -0.3,3.2 0.7,5.2 -1.2,-0.3 -2.3,-0.8 -3.5,-1.3 -0.7,-2.3 0.2,-5.2 1.8,-7 1.1,-1.2 3.3,-2.6 6.5,-2.1 z m -2.4,-6.2 c 0.5,2 0.7,3.9 0.7,4.7 -0.3,0 -0.8,0 -1.2,0.2 -0.2,-1.5 -1.3,-3.4 -2.8,-5.4 1,0 2.1,0.2 3.3,0.5 z m -5.2,-0.3 c 0.8,1.2 3.2,4.2 3,5.5 -0.5,0.2 -1.2,0.5 -1.7,0.8 -0.7,-1.7 -2.2,-3.5 -4.4,-5.5 0.9,-0.5 1.9,-0.6 3.1,-0.8 z m -5.2,2.2 c 0.2,-0.2 0.5,-0.3 0.7,-0.5 2.5,2.2 4,4.2 4.5,5.9 l -0.2,0.2 c -0.2,0.2 -0.3,0.5 -0.5,0.7 -1.3,-1.8 -3.7,-3.4 -6,-4.5 0.5,-0.8 1,-1.5 1.5,-1.8 z m -3,7.2 c 2.7,0.5 4.5,1.5 5.5,3.2 l 0.2,0 c 0,1.7 0,1.2 0,1.7 -1.8,-1 -3.5,-3.4 -5.2,-3.4 l 0,0 c -0.2,-1.8 -0.3,-1 -0.5,-1.5 z m -0.2,-1 c 0,-1.2 0.3,-2.3 0.8,-3.4 2.5,1.2 5,2.7 5.9,4.7 -0.2,0.5 -0.3,1 -0.5,1.5 -1.3,-1.5 -3.3,-2.5 -6.2,-2.8 z m 1.4,-6.6 c -2.2,2.2 -3.2,5 -2.7,7.9 -2.2,-2 -3.9,-4 -4.9,-5.9 2.4,-0.4 5.1,-1.1 7.6,-2 z m -12.6,3.2 c 0.2,-0.7 2,-0.8 2.7,-0.8 1,0.2 1.5,1.2 2,1.8 1.3,2 2.8,3.7 4.7,5.2 4.4,3.7 9.4,6.4 15.2,7.9 3.5,0.8 7.2,1 10.7,0.7 0.2,0 0.2,0 0.3,-0.2 1,0.5 2,0.8 3,1.2 l 0.2,0 c 2.2,0.7 5.4,0.7 7.7,-0.5 2.7,-1.3 3.7,-3.5 3.4,-5.7 -0.3,-2.3 -2,-4.5 -4.7,-5 -1.7,-0.3 -4,0.2 -5,2 -0.8,1.5 -0.8,3.5 0.5,5 0.3,0.3 0.8,0.3 1.2,0.2 0.3,-0.2 0.3,-0.7 0.2,-1 -1,-1.2 -0.8,-2.2 -0.3,-3 0.5,-0.8 1.7,-1.3 2.7,-1.2 2,0.5 3.4,1.8 3.5,3.5 0.1,1.7 -0.8,3 -2.8,4 -2.8,1.3 -5.9,0.3 -7.2,-0.5 -2.5,-1.5 -3.7,-4.2 -3.4,-7.2 0.3,-2.7 2,-4.5 4.9,-5.5 3.7,-1.3 7.7,-1.7 11.1,0.5 3.2,2 5.9,4.4 6.5,8 0.3,2.5 0.8,8.7 -4.2,13.6 -4.4,4.2 -11.7,5.9 -21.4,5 -4.7,-0.3 -8.7,-1.7 -12.1,-3.4 -4.9,-2.3 -8.9,-6 -11.9,-10.1 -1.3,-1.8 -2.5,-3.9 -3.7,-5.9 -1,-1.7 -1.5,-3.2 -2.3,-4.9 -0.8,-0.8 -1.8,-2.8 -1.5,-3.7 z m -0.5,16.3 c -2.8,-1.7 -3.4,-5.5 -3.5,-8.4 0,-1.7 0.2,-3.4 0.3,-5 0.2,-0.7 0,-1.7 0.2,-2.2 0.5,-1.3 1.7,-1.2 2.2,0 0.7,1.3 0.8,3 1.3,4.4 1.2,3.2 3,5.7 4.5,8.9 1.7,2.8 -3,3.6 -5,2.3 z m 10.9,8.7 c -2.2,-0.8 -4,-2.3 -5.4,-4.2 -0.5,-0.8 -1,-2 -0.7,-2.8 0.2,-0.7 0.8,-1.2 2,-1.2 1.3,-0.2 2.2,1.7 3,2.5 1.2,1.2 2.3,2.2 3.5,3.2 1.2,0.8 2.5,1.5 3.4,2.7 -1.1,0.8 -4.3,0.5 -5.8,-0.2 z m 7.5,5.5 c -0.8,0.3 -1.8,0.5 -2.5,0.2 -1.2,-0.3 -3.2,-1.7 -2.8,-3 0.4,-1.3 4,-1.7 5,-1.2 1.5,1 2.3,3.4 0.3,4 z m 1.4,-4.3 c 2.7,1.2 5.5,2.2 8.7,2.7 -0.8,0.7 -2.7,1 -4.5,0.7 -1.4,-0.3 -3.6,-1.1 -4.2,-3.4 z m 10.5,8.2 c -0.8,0.7 -2.2,0.8 -3,0.7 -0.7,-0.2 -1.7,-0.8 -2.2,-1.7 -1.3,-2.3 0.5,-2.2 2.3,-2.5 0.3,0 2.2,1 2.3,1.2 1.5,0.6 2.1,1.3 0.6,2.3 z m 2.2,-3.2 c -0.8,0 -2.2,0 -2.7,-0.5 -0.3,-0.3 -0.5,-0.3 -0.5,-0.5 0,0 0,-0.2 0,-0.3 0.2,-0.8 1.5,-0.8 2.2,-0.8 1.8,0.2 4.5,-0.5 6.2,0.3 -1,1.5 -3.5,2 -5.2,1.8 z m 13.6,-0.2 c -1.2,1.3 -2.8,2.2 -4.9,2.3 -1.7,0.2 -4.2,0 -5.4,-1.2 0.8,-0.5 1.7,-0.8 2.5,-1.3 1.7,-1 2.3,-1.7 4.4,-2.2 0.3,-0.2 5.5,-1.5 5.4,-0.8 -0.3,1.2 -1.4,2.2 -2,3.2 z m 5.8,2.2 c -1.8,0 -3.9,-0.7 -4.5,-1.7 1.8,-2.3 2.2,-3.9 2.2,-4.7 1,-0.5 2,-1 2.8,-1.7 0.5,2 1.2,4.4 2,6.7 -0.1,1.2 -1.6,1.4 -2.5,1.4 z m 3.6,-7.9 c 2.7,4.7 6.7,11.2 13.4,10.9 2.2,-0.2 4.4,-0.8 5.9,-2.3 0.7,-0.7 1,-2.3 1.5,-2.7 1,-0.7 3.9,0 4.5,0.8 1.2,1.3 -0.2,4 -1,5.4 -1.3,2 -4.2,4.4 -7.7,4.2 -7.7,-0.2 -12.6,-4.7 -15.2,-10.9 -0.8,-1.9 -3.3,-7.4 -1.4,-5.4 z m 17,20.3 c -10.4,0.5 -18.4,-14.2 -14.7,-10.4 3.5,4 8.2,7.4 14.1,7.5 4.2,0 7.4,-2.5 9,-4.9 1,-1.5 1.3,-2.8 1.7,-4.5 0.2,-0.7 -0.2,-1.7 1.2,-1.8 1,0 3.5,-0.3 4,0.5 0.5,0.8 -0.8,3.9 -1.2,4.9 -1.3,3.4 -3.9,6.5 -7.5,7.9 -1.9,0.6 -4.4,0.8 -6.6,0.8 z m 11.1,-1.8 c 1.2,0.8 2.8,1.5 4.7,2 0.2,0.3 0.3,1.2 0.2,1.8 -0.2,0.5 -0.8,1 -1.7,1.3 -2.8,1 -6,0 -8,-2.5 2,-0.5 3.5,-1.5 4.8,-2.6 z m 2.7,8.8 c -4.4,0.3 -7.9,-1.5 -10.4,-5.7 0.5,0 0.8,-0.2 1.3,-0.2 2.3,3.4 6.5,4.7 10.2,3.4 1.3,-0.5 2.2,-1.2 2.5,-2.2 0.3,-0.7 0.3,-1.3 0.2,-2 0.8,0.2 1.7,0.3 2.7,0.3 -0.8,1.9 -2.8,6.3 -6.5,6.4 z m 6.5,-7.3 c -1.8,-0.2 -4,-0.3 -5.7,-1.2 -0.7,-0.3 -1.7,-0.7 -1.5,-1.2 0,-0.2 0.2,-0.3 0.3,-0.3 0.8,-0.3 3.2,0.3 4.4,0.2 2,-0.2 3.9,-0.8 5.4,-2.2 1.7,-1.3 2.8,-4 2.7,-6.4 0,-0.8 -1,-1.8 -1,-2.7 0.3,-1.7 2.8,-0.8 3.7,-0.2 1.3,1.2 2,3 2.3,4.7 0.5,2.8 -0.3,5.5 -2.2,7 -2.3,1.9 -5.5,2.6 -8.4,2.3 z m 5.4,5 c -1.2,-0.3 -4.7,-1.8 -3.4,-3.5 0.3,-0.3 2.8,-0.5 3.9,-0.7 0.7,-0.2 1.2,-0.5 1.8,-0.7 0.3,-0.2 1.2,-1 1.5,-1 1.5,0.3 2.7,2.2 1.8,3.4 -0.8,1.3 -2.5,2.5 -4.4,2.7 -0.2,-0.2 -0.7,-0.2 -1.2,-0.2 z m 12.9,1.5 c -1,1.5 -3.7,2.5 -5.2,2.7 -3,0.3 -6.9,-1.3 -6.2,-2.5 0.5,-0.8 3.2,-1.2 4,-1.8 1,-0.7 1.3,-1.5 1.8,-2.5 0.3,-0.3 0.3,-0.5 0.8,-0.7 1.3,-0.2 1.7,0 2.2,1 0.3,0.5 0.7,0.8 1.2,1.2 1.2,0.9 2.4,1.1 1.4,2.6 z m 0.3,-3.4 0,0 c -2.8,-1.2 0.3,-3.4 1.8,-4.2 0.5,-0.3 1,-0.5 1.7,-0.3 2.5,0.2 3.2,1.7 1.7,3.5 -1.3,1.4 -3.3,1.9 -5.2,1 z m 11.4,0.5 c -0.3,1 -2.2,1.8 -3.2,2.2 -0.3,0.2 -0.5,0.2 -0.8,0.2 -1.3,0.2 -3.7,0.5 -4.4,-1 -0.2,-0.5 1.2,0 3,-1.5 0.7,-0.5 0.7,-1.3 1.2,-1.8 0.8,-0.8 1.2,0 2.2,0.5 1,0.3 2.3,0.4 2,1.4 z m 3.7,-2.8 c -1.3,0.7 -2.8,0.8 -4.2,0.3 -0.8,-0.3 -2.8,-1.5 -2.3,-2.3 0.2,-0.5 1.3,-0.8 1.7,-1.2 0.5,-0.3 0.8,-1.2 1.3,-1.5 0.7,-0.3 0.8,0 1.7,0.3 1.2,0.3 3.4,0 3.5,1.2 0.1,1 -0.7,2.7 -1.7,3.2 z m 7.5,-1.7 c -0.2,0.8 -1,2.2 -2.7,2.8 -0.7,0.3 -1.5,0.5 -2.3,0.3 -0.5,0 -1.2,-0.2 -1.5,-0.5 0.7,-0.8 1.5,-1.5 1.8,-2.5 0.3,-0.8 -0.2,-2.2 0,-2.8 0.2,-0.7 1.3,-1 1.8,-1.5 2.1,-2 3.3,3.1 2.9,4.2 z m 4.2,-9.2 c -0.3,1.3 -1.7,2.3 -3,2.8 -0.7,0.2 -1.5,0.3 -2.2,0.3 -1.2,-0.2 -0.8,-0.7 -1,-1.5 -0.2,-0.5 -1,-1.3 -1,-1.7 0,-0.3 0.8,-1.3 1,-1.7 0.2,-0.5 0.3,-1.5 0.5,-1.8 0.5,-0.7 2.8,-0.2 3.9,0.2 0,0 0,0 0.2,0 0.3,0 0.7,0.3 1.2,0.7 0.1,0.2 0.8,1.2 0.4,2.7 z m -5.5,-5.9 c -3.4,-1 -6.4,-3.4 -7.2,-5.4 -2.2,-5.2 0,-10.4 5.2,-12.9 3.2,-1.5 7.2,-1.8 10.2,-0.7 2.3,0.8 3.9,2.3 4.7,4.4 1.7,4.2 -1.2,9 -6,10.2 -2.8,0.7 -5.5,0 -7.4,-2.2 -1.7,-1.8 -1,-4.4 0.5,-5.9 1.3,-1.2 3.5,-2 5.9,-0.5 0.3,0.2 0.8,0.2 1.2,-0.2 0.4,-0.4 0.2,-0.8 -0.2,-1 -2.7,-1.7 -5.7,-1.5 -8,0.7 -2,1.8 -2.8,5.2 -0.5,7.7 2.2,2.5 5.7,3.5 9,2.7 4.5,-1.2 7.7,-5.2 8.4,-10.2 1.3,-9.9 -3.9,-14.7 -8.5,-17.9 -12.6,-8.4 -28.3,-5.9 -49.8,8.2 -7.5,5 -17.6,9.2 -26.6,8 -1.2,-0.2 -4.2,-0.7 -3.7,-1.5 -0.2,-1 4.7,1 11.1,-0.8 4,-1.2 8,-2.3 11.6,-4.4 3.4,-1.8 6.5,-4 9.5,-6.2 11.4,-8.7 29.3,-16.4 43.9,-14.2 7.5,1.2 13.6,5 17.6,11.4 5.9,8.9 5,22.1 -6,28.6 -4.7,2.8 -10.6,3.7 -14.9,2.1 z m 30.8,-10.5 c -3.5,4.4 -9,7.9 -14.7,9.5 -1,0.3 2,-1.5 2.7,-2 0.8,-0.7 1.7,-1.5 2.3,-2.3 1.5,-1.7 2.7,-3.5 3.5,-5.5 1.7,-4.2 2,-8.7 0.8,-13.1 -0.7,-2.5 -1.7,-5.2 -3.2,-7.4 -4.4,-6.7 -10.7,-10.7 -18.8,-12.1 -15.1,-2.3 -33.5,5.7 -45.1,14.6 -7.7,5.9 -17.3,11.1 -27.6,11.7 -0.8,0 -2.5,0 -3.5,-0.3 -1.5,-0.7 0.7,-0.8 1.5,-1 4,-0.7 7,-1.3 10.1,-4 1,-1 2.5,-2.5 4.2,-4.2 4.9,-5 12.2,-12.7 17.3,-13.1 5.7,-0.3 8.5,1.5 8.5,1.5 l 0.5,0.3 0.5,-0.5 c 0.3,-0.3 0.7,-0.7 1.2,-1.3 2,-2.2 5.7,-6.4 8.2,-7.5 14.6,-7.9 38.5,-5.4 47.6,5.2 3.7,4.2 6.4,8.9 7.9,12.9 l 0,0 0,0 c 0.3,0.8 0.5,1.7 0.7,2.3 0.9,3.6 0.3,10.3 -4.6,16.3 z m 9.4,1.5 c -1,-0.7 -1.8,-1.5 -2.7,-2.2 -0.7,-0.7 -3,-2.3 -1.7,-2.2 2.2,0.2 4.4,1.2 6.5,1.3 1.3,0.2 2.7,0.3 4,0.3 0.8,0 3.7,-0.3 4.2,0.3 1,1.3 -2.3,3.7 -3.5,3.9 -2.4,0.6 -4.8,-0.2 -6.8,-1.4 z m 27.5,6.5 c -2.2,2.2 -5,3.5 -8.2,3.5 -6.4,0 -10.1,-2.2 -12.1,-6.9 3.2,3.7 8,5.5 12.7,4.7 2.7,-0.5 5.2,-1.8 6.5,-4 0.3,-0.5 0.7,-1 0.8,-1.7 0.2,-0.5 0,-1.5 0.3,-1.8 0.3,-0.3 1.5,-0.3 2,-0.7 0.8,-0.3 1.5,-0.8 1.5,0.3 0,1 -0.7,2 -1,2.8 -0.7,1.5 -1.5,2.8 -2.5,3.8 z m 4.7,-4.7 c 0.3,-1 0.2,-2.3 0.8,-3.2 1.2,0.7 2.2,2.2 3.4,3 0.8,0.7 2.7,1 3.2,1.8 0.7,1.2 -1,2.7 -2,3 -1,0.5 -2,0.7 -3.2,0.5 -1,-0.2 -2.5,-0.7 -3.2,-1.2 -1,-0.7 0.6,-2.7 1,-3.9 z m 6.7,9.9 c -2,0.3 -4,0.2 -5.9,-0.7 -1.2,-0.5 -2.3,-1.2 -3.4,-1.8 -0.3,-0.3 -1,-0.8 -1,-1.2 0,-0.4 0.8,-1.2 1.3,-1.2 0.7,0 2,1.2 2.8,1.5 1.8,0.7 3.7,0.5 5.5,-0.3 0.8,-0.3 1.7,-1 2.2,-1.8 0.5,-0.8 0.3,-1.7 1.5,-1.5 0.8,0.2 2.2,0.3 2.8,0.7 1.2,0.7 0.5,1.7 0,2.5 -1.3,2 -3.3,3.3 -5.8,3.8 z m 36.3,-1.5 c -0.8,1 -1.8,2 -3,2.8 -2.3,1.7 -5.2,2.8 -8,3.5 -5.7,1.2 -11.9,0.5 -16.8,-2.3 -1,-0.5 -1.8,-1.2 -2.7,-2 -0.3,-0.2 -1,-0.8 -1,-1.2 0,-0.5 1.3,-1 1.8,-0.8 0.5,0.2 1,0.8 1.5,1.2 0.5,0.4 1.2,0.5 1.8,0.8 2.8,1.2 5.9,1.8 9,1.8 3.4,0 6.5,-0.5 9.5,-1.7 1.5,-0.7 2.8,-1.3 4.2,-2.2 0.7,-0.5 1.3,-1 1.8,-1.5 0.5,-0.5 0.8,-1 1.3,-1.3 3.3,-1.4 1.5,1.9 0.6,2.9 z m -26.6,-1 c 2.7,1.2 5.9,1 8.5,-0.3 1.3,-0.7 2.2,-2 3.7,-1.7 1.5,0.3 3,1 4.7,1.2 1,0.2 2.2,0.2 3.2,0.2 0.8,0 3.2,-0.7 2,0.8 -0.5,0.7 -2.5,1.5 -3.7,1.8 -2.8,1 -6,1.5 -9,1.5 -2.3,0 -4.9,-0.3 -7.2,-1 -1.2,-0.3 -2.3,-0.8 -3.2,-1.5 -0.3,-0.2 -2.3,-2.2 -0.7,-1.8 0.3,-0.2 1.2,0.6 1.7,0.8 z m -1.4,-3.3 c 0.3,-0.7 2,-0.3 2.8,-0.5 1.3,-0.3 3.2,-1.8 4.5,-1.3 1.5,0.7 4.5,2.3 2.2,3.7 -2.2,1.2 -5.4,1.2 -7.5,0.2 -0.7,-0.3 -1.5,-0.7 -1.8,-1.3 -0.2,-0.3 -0.2,-0.7 -0.2,-0.8 z m 38.4,-10.8 c -0.3,1.5 -0.8,2.8 -1.7,4.2 -2.2,3.5 -6,6 -11.2,7.4 -10.4,2.5 -18.1,-4.4 -18.1,-4.5 l -0.7,-0.5 -0.5,0.7 c -1.3,1.5 -3.9,2.2 -6.9,2 -2.7,-0.2 -9.4,-1.5 -14.2,-9.4 -3.5,-5.7 -5,-12.1 -4.4,-18.8 0.5,3.4 1.5,7 3.5,9.9 7.4,10.1 20.4,14.9 34.7,12.7 3.5,-0.5 7,-1.5 10.4,-2.8 1.7,-0.7 3.2,-1.5 4.7,-2.3 0.8,-0.5 2.7,-2.2 3.7,-2 1.2,0.1 0.9,2.6 0.7,3.4 z"
       id="path3426"
       inkscape:connector-curvature="0"
       style="fill:#ffffff" /><path
       d="m 605.5,267 0,0 c 0,0.2 0,0.2 0,0 z"
       id="path3428"
       inkscape:connector-curvature="0"
       style="fill:#ffffff" /><path
       d="m 255.1,208.2 c 0.7,-0.3 1.2,-1.2 1.3,-2.5 l 2.8,-17.6 c 0,0.2 0.2,0.3 0.2,0.5 1.5,4.4 3.7,8 6.5,11.4 2.8,3.2 6.4,5.9 10.7,7.7 4.4,1.8 9.4,2.8 15.1,2.8 6,0 11.2,-1.3 15.9,-4.2 4.7,-2.7 8.4,-6.5 11.6,-11.4 0.3,-0.7 0.5,-1.3 0.3,-2 -0.2,-0.8 -0.7,-1.3 -1.5,-1.8 -1.3,-0.8 -2.5,-0.8 -3.2,0.2 -2.7,4.4 -5.5,7.5 -8.5,9.2 -3,1.8 -6.5,2.7 -10.6,2.7 -4.2,0 -7.7,-0.7 -10.6,-2.2 -2.8,-1.5 -5.4,-3.5 -7.2,-6.2 -1.8,-2.7 -3.2,-5.7 -4.2,-9.4 -0.8,-3.7 -1.3,-8.5 -1.3,-11.9 l 35.9,0 c 3,0 5.5,-0.7 7.4,-1.7 1.8,-1 2.8,-3.4 2.8,-6.9 -0.3,-3.5 -1.2,-6.9 -2.5,-9.9 -1.3,-3 -3.2,-5.7 -5.5,-7.9 -2.3,-2.2 -5.2,-3.9 -8.5,-5.2 -3.4,-1.2 -7.4,-1.8 -11.9,-1.8 -5.2,0 -9.7,1 -13.7,3 -4,2 -7.5,4.7 -10.4,8 -2.8,3.4 -5,7 -6.5,11.2 -1.5,4.2 -2.3,8.4 -2.3,12.6 0,3.4 0.3,6.7 1.2,9.9 l 0,0 c -0.8,-0.5 -1.7,-0.8 -2.5,-1.2 -1,-0.2 -2,-0.2 -3,0.2 -1,0.3 -1.7,1 -2,1.8 -1,3.2 -1.8,5.9 -2.7,8 -0.9,2.1 -1.7,3.9 -2.8,5.2 -1,1.3 -2.5,1.8 -4,2.3 -1.5,0.5 -3.7,0.5 -6.2,0.5 l -13.2,0 c -2.5,1.7 -4.5,0.3 -5.9,-0.3 -1.3,-0.7 -2.3,-1.2 -3,-2 -0.7,-1 -0.8,-1.8 -0.8,-2.8 -0.2,-1 -0.2,-2 -0.2,-3 l 0,-60.5 c 0,-1.3 -0.2,-2.7 0,-4.2 0.2,-1.3 0.5,-2.7 1,-3.7 0.7,-1 1.5,-2 2.7,-2.5 1.3,-0.7 3,-1 5.4,-1 1,0 1.8,-0.2 2.5,-0.3 0.7,-0.2 1,-1.2 1.2,-2.8 0,-0.8 -0.2,-1.5 -0.7,-2.2 -0.3,-0.7 -1,-1 -2,-1 -6.4,0.3 -12.6,0.5 -18.4,0.5 -3,0 -5.9,0 -8.5,0 -2.7,0 -5.7,-0.2 -9,-0.3 -0.8,0 -1.5,0.3 -1.8,0.8 -0.3,0.7 -0.7,1.3 -0.7,2.3 0.2,1.5 0.5,2.5 1.2,2.7 0.7,0.2 1.5,0.3 2.5,0.3 2.3,0 4.2,0.3 5.5,1 1.3,0.7 2.2,1.5 2.8,2.5 0.7,1 0.8,2.3 1,3.7 0.2,1.3 0.2,2.7 0.2,4.2 l 0,58.5 c 0,1.3 0,2.7 -0.2,4.2 -0.2,1.3 -0.5,2.7 -1,3.7 -0.7,1 -1.5,2 -2.8,2.5 -1.3,0.7 -3,1 -5.5,1 -1,0 -2,0.2 -2.5,0.5 -0.7,0.3 -1,1.2 -1.2,2.7 0,0.8 0.2,1.5 0.7,2.2 0.3,0.7 1,1 1.8,1 3.2,-0.2 6.2,-0.3 9,-0.3 2.8,0 5.7,0 8.5,0 l 48.4,0 c 1.4,-0.3 2.2,-0.4 2.9,-0.8 z m 22.6,-56.4 c 3.2,-3.9 7.4,-6 12.4,-6 2.3,0 4.4,0.3 6.2,1.2 1.8,0.8 3.2,2 4.4,3.5 1.2,1.5 2,3.2 2.7,5.2 0.7,2 0.8,4 0.8,6 -0.2,2.3 -1,4.2 -2.3,5.2 -1.3,1 -3.2,1.8 -5.5,1.8 l -24,0 c 0.3,-8.5 2.1,-13.1 5.3,-16.9 z"
       id="path3430"
       inkscape:connector-curvature="0"
       style="fill:#ffffff" /><path
       d="m 335.8,217.8 c 0.7,-0.7 1.2,-1.2 1.5,-1.7 0.5,-0.3 0.7,-0.7 0.7,-0.8 0,-0.3 -0.2,-0.7 -0.7,-1.2 -0.3,-0.5 -1,-1 -1.7,-1.5 -0.7,-0.5 -1.5,-0.8 -2.5,-1.2 -1,-0.4 -2,-0.5 -3.2,-0.5 -3.5,0 -6.2,1.2 -8.2,3.7 -2,2.5 -3,5.4 -3,8.5 0,3.4 0.7,6.2 2.2,8.4 1.5,2.2 3.5,4 6.2,5.5 2.7,1.3 6,2.3 9.9,3 3.9,0.7 8.2,0.8 12.9,0.8 5.9,0 11.2,-0.5 16.1,-1.7 4.9,-1 9,-2.7 12.4,-4.9 3.5,-2.2 6.2,-4.7 8,-7.7 1.8,-3 2.8,-6.5 2.8,-10.4 0,-5.9 -2.2,-10.2 -6.7,-13.6 -4.5,-3.2 -12.1,-4.9 -22.4,-4.9 l -20.3,-0.7 c -3.2,-0.2 -5.5,-0.8 -6.7,-1.7 -1.2,-1 -1.8,-2.3 -1.8,-4 0,-2.2 1.2,-3.9 3.5,-4.9 2.3,-1 6,-1.5 11.1,-1.5 l 6.5,0 c 3.4,0 6.7,-0.5 9.9,-1.5 3.4,-1 6.2,-2.5 8.9,-4.5 2.7,-2 4.7,-4.4 6.2,-7.2 1.5,-2.8 2.3,-6 2.3,-9.5 0,-2.5 -0.3,-5 -1.5,-7.9 -1.2,-2.7 -2.3,-5 -4,-6.7 l 0,-0.3 14.4,0.7 c 0.7,0 1.2,-0.7 1.5,-1.8 0.3,-1.1 0.5,-2.5 0.5,-3.9 0,-0.8 -0.2,-1.7 -0.7,-2.5 -0.3,-0.8 -1.2,-1.2 -2.2,-1 l -20.3,3.9 c -2.2,-1 -4.7,-1.8 -7.7,-2.3 -3,-0.5 -5.9,-0.7 -8.5,-0.7 -4.2,0 -8,0.7 -11.6,1.8 -3.6,1.1 -6.5,2.8 -9,4.9 -2.5,2 -4.5,4.4 -5.9,7.2 -1.3,2.7 -2,5.7 -2,8.9 0,1.8 0.2,3.7 0.7,5.5 0.5,1.8 1.3,3.7 2.5,5.4 1.2,1.7 2.8,3.4 4.9,4.9 2,1.5 4.5,2.8 7.7,4 -5.4,0 -9.2,1.3 -11.7,4 -2.5,2.7 -3.9,5.9 -3.9,9.5 0,4 1.2,6.9 3.5,8.5 2.3,1.7 5.2,2.8 8.5,3.4 2.5,0.5 5.4,0.8 8.4,0.8 3,0.2 6,0.2 9.2,0.2 3,0 6,0.2 8.9,0.5 2.8,0.2 5.4,0.7 7.5,1.5 2.2,0.7 3.9,1.8 5.2,3.2 1.3,1.3 2,3.4 2,5.7 0,5.4 -2,9.2 -5.9,11.7 -3.9,2.5 -9.2,3.7 -15.9,3.7 -7.2,0 -12.4,-0.7 -15.9,-2.2 -3.5,-1.5 -5,-4.5 -5,-9.2 0,-1.5 0.2,-2.7 0.7,-3.7 0.5,-0.5 1,-1.3 1.7,-2 z m 0.4,-55.5 c 0,-5.5 1.3,-9.9 4.4,-12.9 2.8,-3 6.5,-4.5 10.9,-4.5 4.5,0 8.2,1.5 11.1,4.7 2.9,3.2 4.4,7.5 4.4,13.1 0,6 -1.5,10.6 -4.4,13.7 -2.8,3.2 -6.5,4.7 -11.1,4.7 -4.4,0 -8,-1.7 -11.1,-4.9 -2.9,-3.1 -4.2,-7.8 -4.2,-13.9 z"
       id="path3432"
       inkscape:connector-curvature="0"
       style="fill:#ffffff" /><path
       d="m 406.5,207.7 c 4.4,1.8 9.4,2.8 15.1,2.8 6,0 11.2,-1.3 15.9,-4.2 4.7,-2.7 8.4,-6.5 11.6,-11.4 0.3,-0.7 0.5,-1.3 0.3,-2 -0.2,-0.8 -0.7,-1.3 -1.5,-1.8 -1.3,-0.8 -2.5,-0.8 -3.2,0.2 -2.7,4.4 -5.5,7.5 -8.5,9.2 -3,1.8 -6.5,2.7 -10.6,2.7 -4.2,0 -7.7,-0.7 -10.6,-2.2 -2.8,-1.5 -5.4,-3.5 -7.2,-6.2 -1.8,-2.7 -3.2,-5.7 -4.2,-9.4 -0.8,-3.7 -1.3,-8.5 -1.3,-11.9 l 35.9,0 c 3,0 5.5,-0.7 7.4,-1.7 1.8,-1 2.8,-3.4 2.8,-6.9 -0.3,-3.5 -1.2,-6.9 -2.5,-9.9 -1.3,-3 -3.2,-5.7 -5.5,-7.9 -2.3,-2.2 -5.2,-3.9 -8.5,-5.2 -3.4,-1.2 -7.4,-1.8 -11.9,-1.8 -5.2,0 -9.7,1 -13.7,3 -4,2 -7.5,4.7 -10.4,8 -2.8,3.4 -5,7 -6.5,11.2 -1.5,4.2 -2.3,8.4 -2.3,12.6 0,4.9 0.7,9.4 2.2,13.7 1.5,4.4 3.7,8 6.5,11.4 2.8,3.4 6.4,5.9 10.7,7.7 z m 1,-55.9 c 3.2,-3.9 7.4,-6 12.4,-6 2.3,0 4.4,0.3 6.2,1.2 1.8,0.8 3.2,2 4.4,3.5 1.2,1.5 2,3.2 2.7,5.2 0.7,2 0.8,4 0.8,6 -0.2,2.3 -1,4.2 -2.3,5.2 -1.3,1 -3.2,1.8 -5.5,1.8 l -24,0 c 0.3,-8.5 2.1,-13.1 5.3,-16.9 z"
       id="path3434"
       inkscape:connector-curvature="0"
       style="fill:#ffffff" /><path
       d="m 506.5,197.4 c 0,1.2 -0.3,2.3 -0.8,3.2 -0.5,1 -1.2,1.7 -2.2,2.2 -1,0.5 -2.5,0.8 -4.7,0.8 -0.8,0 -1.7,0 -2.3,0.2 -0.7,0.2 -1,1 -1.2,2.5 0,0.8 0.2,1.5 0.7,2 0.3,0.7 1,0.8 1.8,0.8 2.8,-0.2 5.5,-0.3 7.9,-0.3 2.4,0 4.9,0 7.5,0 2.7,0 5.2,0 7.5,0 2.3,0 5,0.2 7.9,0.3 0.8,0 1.3,-0.3 1.8,-0.8 0.3,-0.7 0.7,-1.3 0.7,-2 -0.2,-1.5 -0.5,-2.3 -1.2,-2.5 -0.7,-0.2 -1.3,-0.2 -2.3,-0.2 -2,0 -3.7,-0.3 -4.7,-0.8 -1,-0.5 -1.7,-1.3 -2.2,-2.2 -0.5,-1 -0.5,-2 -0.5,-3.2 0,-1.2 0,-2.5 0,-3.7 l 0,-31.3 c 0,-6.5 -2,-11.9 -6,-15.9 -3.9,-4 -9.2,-6 -16.1,-6 -3.2,0 -5.9,0.3 -8.2,1 -2.3,0.7 -4.4,1.5 -6.2,2.7 -1.8,1 -3.5,2.3 -5,3.7 -1.5,1.3 -3,2.5 -4.4,4.2 l -1,0 0,-9.5 c 0,-1.2 0,-2 -0.5,-2.3 -0.5,-0.3 -1,-0.5 -1.8,-0.5 -0.8,0.2 -1.5,0.3 -2.3,0.7 -0.8,0.3 -1.8,0.7 -3.2,1.2 -1.3,0.5 -3.2,1 -5.4,1.5 -2.2,0.5 -4.9,1 -8.2,1.5 -0.8,0.2 -1.3,0.5 -1.8,1 -0.3,0.5 -0.7,1 -0.7,1.7 0,1.5 0.3,2.3 1.2,2.5 0.7,0.2 1.5,0.3 2.5,0.3 2,0 3.7,0.3 4.7,0.8 1,0.5 1.3,1.3 1.8,2.2 0.5,1 0.3,2 0.3,3.2 0,1.2 0,2.5 0,3.7 l 0,33.7 c 0,1.3 0,2.5 0,3.7 0,1.2 0.2,2.3 -0.3,3.2 -0.5,1 -1,1.7 -2,2.2 -1,0.5 -2.5,0.8 -4.5,0.8 -1,0 -1.7,0 -2.3,0.2 -0.7,0.2 -1,1 -1.2,2.5 0,0.8 0.2,1.5 0.7,2 0.3,0.7 1,0.8 1.8,0.8 2.8,-0.2 5.5,-0.3 7.9,-0.3 2.3,0 4.9,0 7.5,0 2.7,0 5.2,0 7.5,0 2.3,0 5,0.2 7.9,0.3 0.8,0 1.3,-0.3 1.8,-0.8 0.3,-0.7 0.7,-1.3 0.7,-2 -0.2,-1.5 -0.5,-2.3 -1.2,-2.5 -0.7,-0.2 -1.3,-0.2 -2.3,-0.2 -2,0 -3.7,-0.3 -4.7,-0.8 -1,-0.5 -2.2,-1.3 -2.7,-2.2 -0.5,-1 -1,-2 -1,-3.2 0,-1.2 0,-2.5 0,-3.7 l 0,-35 c 1.7,-0.8 1.5,-1.8 2.5,-3 1,-1.2 2.5,-2.2 4,-3.4 1.5,-1 3.4,-2 5.5,-2.7 2,-0.7 4.4,-1.2 7,-1.2 1.7,0 3.4,0.3 5,0.8 1.7,0.5 3.2,1.3 4.5,2.5 1.3,1.2 2.5,2.5 3.4,4.4 0.8,1.8 1.3,3.9 1.3,6.4 l 0,31.3 c 0,0.9 -0.2,2.3 -0.2,3.5 z"
       id="path3436"
       inkscape:connector-curvature="0"
       style="fill:#ffffff" /><path
       d="m 580.2,209.6 c 0,0.7 0.3,0.8 1.2,0.8 l 23.3,-1.7 c 1.7,-0.3 2.5,-1.2 2.5,-2.5 0,-0.5 -0.2,-1 -0.5,-1.5 -0.3,-0.5 -1,-0.8 -2,-0.8 -4,0 -6.5,-0.7 -8.4,-2.2 -1.8,-1.5 -2.3,-3.7 -2.3,-6.5 l 0,-90.8 c 0,-1.2 -0.7,-2 -1.2,-2.3 -0.5,-0.3 -1.3,-0.5 -2.2,-0.5 -0.8,0.2 -1.7,0.3 -2.5,0.7 -0.8,0.3 -2,0.7 -3.4,1.2 -1.3,0.5 -3.2,1 -5.4,1.5 -2.2,0.5 -4.9,1 -8.2,1.5 -0.8,0.2 -1.3,0.5 -1.8,1 -0.3,0.5 -0.7,1 -0.7,1.7 0,1.5 0.3,2.3 1.2,2.5 0.7,0.2 1.5,0.3 2.5,0.3 2,0 3.7,0.3 4.7,0.8 1,0.5 2.2,1.3 2.5,2.2 0.5,1 1,2 1,3.2 0,1.2 0,2.5 0,3.7 l 0,23.3 -1.2,0 c -2.2,-1.7 -4.9,-2.7 -7.9,-3.4 -3,-0.7 -6,-1.3 -9.2,-1.3 -5,0 -9.5,0.8 -13.7,2.8 -4.2,2 -7.7,4.5 -10.7,7.7 -3,3.2 -5.4,7 -7,11.2 -1.7,4.2 -2.5,8.5 -2.5,13.1 0,5.2 0.8,10.1 2.5,14.2 1.7,4.4 3.9,8 6.7,11.1 2.8,3.1 6.2,5.5 9.9,7.2 3.7,1.7 7.7,2.5 11.7,2.5 3.7,0 7.4,-0.7 11.1,-2.3 3.7,-1.6 6.7,-4.5 9.2,-6.2 l 1,0 0,5.4 c 0,1 -0.2,1.7 -0.2,2.4 z m 0.2,-13.8 c -1.7,1.8 -4.2,3.5 -6.7,5 -2.5,1.5 -5.7,2.3 -9.5,2.3 -3.5,0 -6.7,-0.8 -9.4,-2.3 -2.7,-1.5 -4.9,-3.5 -6.5,-6 -1.7,-2.5 -3,-5.4 -3.9,-8.5 -0.8,-3.2 -1.3,-6.7 -1.3,-10.2 0,-4.9 0.5,-9 1.5,-12.9 1,-3.9 2.5,-7 4.4,-9.5 1.8,-2.7 4,-4.5 6.5,-6 2.5,-1.3 5,-2 8,-2 2.3,0 4.5,0.3 6.2,1.2 1.8,0.7 3.4,1.7 4.7,2.7 1.3,1 2.8,2.3 3.7,3.7 0.9,1.4 0.5,2.7 2.2,3.9 l 0,38.9 0.1,0 z"
       id="path3438"
       inkscape:connector-curvature="0"
       style="fill:#ffffff" /><path
       d="m 655,181.4 c -1,-2.2 -2.5,-3.9 -4.5,-5.4 -1.8,-1.3 -4.2,-2.7 -6.9,-3.7 -2.7,-1 -5.5,-2 -8.9,-3.2 -3.2,-1 -6,-1.8 -8.4,-2.7 -2.3,-0.8 -4.2,-1.8 -5.7,-2.8 -1.5,-1 -2.5,-2.2 -3.2,-3.7 -0.7,-1.3 -1,-3.2 -1,-5.4 0,-1.5 0.3,-3 1.2,-4.2 0.9,-1.2 1.8,-2.2 3.2,-3 1.3,-0.8 2.8,-1.3 4.5,-1.8 1.7,-0.5 3.4,-0.7 5.2,-0.7 1.5,0 3,0.2 4.5,0.5 1.5,0.3 2.8,0.8 4,1.5 1.2,0.7 2.2,1.5 2.8,2.7 0.7,1.2 1.2,2.3 1.2,3.7 0,1 -0.2,2 -0.7,2.8 -0.5,0.8 -1,1.5 -1.5,2 -0.5,0.5 -1,1 -1.5,1.3 -0.5,0.3 -0.7,0.5 -0.7,0.7 0,0.3 0.5,1 1.7,2 1.2,1 2.5,1.3 4.4,1.3 2.7,0 4.9,-1 6.5,-2.8 1.5,-1.8 2.3,-4.2 2.3,-6.7 0,-2.3 -0.7,-4.4 -1.8,-6.2 -1.2,-1.7 -2.8,-3.2 -4.9,-4.4 -2,-1.2 -4.4,-2 -6.9,-2.7 -2.7,-0.7 -5.2,-0.8 -7.9,-0.8 -3.2,0 -6.4,0.3 -9.5,1.2 -3.2,0.8 -6,2 -8.5,3.7 -2.5,1.7 -4.7,3.7 -6.2,6.2 -1.5,2.5 -2.3,5.4 -2.3,8.5 0,4.4 1,7.7 3,10.4 2,2.5 4.4,4.7 7.4,6.2 3,1.5 6.2,2.8 9.5,3.7 3.5,0.8 6.7,1.8 9.5,3 3,1 5.4,2.3 7.4,4 2,1.5 3,3.9 3,6.7 0,3.7 -1.3,6.5 -3.9,8.5 -2.7,2 -6.2,3 -10.9,3 -5.4,0 -9.2,-0.8 -11.9,-2.7 -2.7,-1.9 -3.9,-4 -3.9,-6.9 0,-1 0.2,-2 0.5,-2.8 0.3,-0.8 0.7,-1.5 1.2,-2 0.5,-0.5 0.8,-1 1.2,-1.2 0.3,-0.3 0.5,-0.5 0.5,-0.7 0,-0.3 -0.5,-1 -1.7,-2 -1.2,-1 -2.5,-1.3 -4.4,-1.3 -2.7,0 -5,0.8 -6.7,2.7 -1.7,1.9 -2.5,4 -2.5,6.9 0,2.5 0.7,4.9 2,6.7 1.3,2 3.2,3.7 5.5,4.9 2.3,1.3 5.2,2.3 8.4,3 3.2,0.7 6.7,1 10.6,1 3.9,0 7.5,-0.5 10.9,-1.7 3.4,-1 6.2,-2.5 8.5,-4.4 2.3,-1.8 4.4,-4 5.7,-6.7 1.3,-2.7 2,-5.5 2,-8.5 0.1,-3 -0.4,-5.5 -1.4,-7.7 z"
       id="path3440"
       inkscape:connector-curvature="0"
       style="fill:#ffffff" /><path
       d="m 225.4,99.3 c 0.3,1.5 1.3,2.5 2.8,3.2 3,1.2 5,1 6,0.7 1.3,1 2.8,1.8 3.9,2.2 -0.2,1.5 0,3.4 1.3,5.4 0.2,0.3 -0.5,1.7 -0.5,2.2 -0.2,1 -0.2,2 0.2,3 1.3,4.9 7.4,5.9 7.4,5.9 0.5,-2 1,-3.9 1.7,-5.9 0.5,-1.3 1.2,-2.7 1.7,-4 -1.2,3.4 -2,6.7 -2.3,9.9 l 2,0 c 0,-1.3 0.2,-2.2 2.2,-1.8 0.8,0.2 1.5,0.3 2,0.8 0.2,0.2 0.3,0.7 0.5,1.2 l 1.7,0 c -0.2,-3.2 0,-6.4 0.5,-9.5 l 0,0 c 0,0 0,0 0,-0.2 0.2,-2.5 0.8,-5 1.8,-4.7 1.2,0.2 -0.7,5.9 -0.7,7.7 0,2.3 0.2,4.5 1,6.9 l 7.4,0 c 0.5,-0.2 1.2,-0.3 1.7,0 l 2.3,0 c -0.2,-0.5 -0.3,-1 -0.3,-1.5 0,-1.2 1.3,-3 2.7,-3.4 1.5,-0.3 3.9,3 5,4.7 l 6,0 c 0,-0.3 0,-0.7 0.2,-0.8 0.5,-1 0.8,-1.7 1.7,-1.8 0.7,-0.2 1.8,0.2 3.4,0.8 -0.3,0.7 -0.5,1.3 -0.7,1.8 l 2,0 c 0.3,-1 0.7,-2.2 1.3,-3.2 1,-1.5 2.5,-3 4,-3.9 4,-2.3 9.2,-3 14.2,-1.8 2,0.5 3.9,1.2 5.4,2.3 0.8,0.5 1.8,1.5 2.3,2.2 0.5,0.7 0.8,0.5 0.2,1.2 -2.3,2.7 -5.4,-0.7 -7.7,-1.5 -4,-1.3 -8.2,-0.2 -11.6,2.2 -1,0.7 -1.8,1.5 -2.3,2.3 l 2.5,0 c 0.3,-0.3 0.7,-0.7 1.2,-1 5.9,-4.4 10.7,-2 13.6,0.3 -0.3,0.2 -0.7,0.5 -0.8,0.7 l 9.7,0 c -1,-0.3 -2.3,-0.8 -2.7,-1.5 -1,-0.8 7.4,-2 7.7,-1 0.3,0.8 0.5,1.7 0.5,2.5 l 1.5,0 c 0,-0.5 0,-0.8 0,-1.3 0.2,-1.2 0,-1.2 1.2,-1.2 1.8,-0.2 1.5,1.3 1.2,2.5 l 2,0 c -0.8,-1.2 0.5,-4.2 1.7,-4.7 1.3,-0.8 4.5,-0.2 5.9,0.3 2.2,0.8 3.2,0.8 2.2,4 0,0.2 -0.2,0.3 -0.2,0.3 l 1.8,0 c 1.3,-6.7 4,-13.4 6.5,-19.1 3.7,-8.4 1.2,-14.9 -1.7,-18.8 -1.2,-1.5 -5,-4 -4,-4.5 0.8,-0.7 3.5,1.5 5.2,2.7 2,1.3 3.9,2.8 5.5,4.5 3.2,3.5 5.4,7.9 5.7,12.4 0.3,3.5 0.2,7.2 -0.5,10.7 -0.7,0.2 -1.3,0.3 -2,0.7 -4.5,1.8 -7.7,6.2 -8.7,11.4 l 2,0 c 1,-4.5 3.9,-8.2 7.7,-9.7 2.7,-1.2 5.5,-1 7.7,0.2 2.8,1.7 2.8,3.5 2.7,4.5 -0.2,1.3 -1,2.2 -1.3,2.2 -0.3,0 -0.7,-0.5 -1,-1 -0.7,-0.8 -1.7,-2.2 -3.5,-1.7 -1.2,0.3 -2.2,1.2 -2.8,2.3 -0.3,0.7 -0.5,1.7 -0.5,3 l 2,0 c 0,-1.2 0.2,-1.8 0.3,-2.3 0.3,-0.7 0.8,-1.2 1.5,-1.3 0.3,-0.2 0.7,0.2 1.3,1 0.5,0.7 1.3,1.7 2.5,1.7 1.3,0 2.7,-1.3 3.2,-2.8 0.3,-1 1.2,-4.7 -3.4,-7.2 -1.5,-0.8 -4.7,-0.3 -5.5,-1.8 -0.5,-0.8 0,-3.5 1.3,-3.5 1.3,0 2.8,1.3 4.2,1.5 1.5,0.2 3,0 4.5,-0.3 2.3,-0.8 2.8,-3.2 4.5,-4.5 1.2,0.8 2.8,3.9 2.2,5.2 -0.7,1.2 -1.2,2.3 -1.5,3.4 -1.3,4 -1.5,7.9 -0.3,11.2 l 2.2,0 c -1.2,-3.2 -1.3,-6.9 0,-10.7 1.7,-4.9 6,-10.4 13.4,-11.2 6,-0.7 13.2,1.3 15.1,6.9 1.2,3.4 1,6.7 -0.5,9 -1,1.7 -2.7,2.8 -4.9,3.4 -4,1 -7.9,0 -9.7,-2.5 -0.7,-0.8 -1,-2 -1,-3 0,-1.2 1.3,-2.3 1.2,-3.4 0,-0.8 -0.7,-1.3 -1.7,-0.8 -0.8,0.3 -1,1.8 -1.2,2.5 -0.5,2 -0.2,4 1.2,5.7 2.3,3.2 7.2,4.5 12.1,3.2 2.7,-0.7 4.9,-2.2 6,-4.2 1.7,-2.8 1.8,-6.7 0.5,-10.4 -1.5,-4.2 -5.4,-6.7 -9.7,-7.7 -1.5,-4 -11.9,-28.3 -49.3,-34.3 -35.9,-5.7 -61.8,6.4 -77.6,17.6 7.4,-6.9 16.1,-13.4 26.5,-18.4 6.7,-3.2 14.6,-5.5 23.1,-6.9 0,0 0,0 0.2,0 22.1,-3.4 48.8,0.7 70.2,15.7 11.9,8.5 23.5,22.4 23.1,36.7 -0.2,4 -0.8,8.9 -2.5,12.7 l 2.2,0 c 0.3,-0.7 0.5,-1.3 0.8,-2 -0.2,0.7 -0.2,1.3 -0.3,2 l 2,0 c 0.7,-3.5 0.8,-7.4 0.5,-10.9 0.5,1.7 1,3.4 1,4.7 0,0.7 0.2,1.3 0.2,2 0.2,1.3 0.2,2.7 0.2,4.2 l 2,0 c 0,-1.5 -0.2,-3 -0.2,-4.4 0,-0.7 -0.2,-1.3 -0.2,-1.8 -0.2,-2 -1,-4.7 -1.8,-7.4 2,4.4 3.4,8.9 4.2,13.6 l 2,0 0,0 c 0.3,-2 14.6,-0.8 23.8,0 l 37,0 c -0.2,-0.2 -0.2,-0.2 -0.3,-0.3 0.7,0 1.3,-0.2 2,0 1.3,0 2.7,0.2 3.9,0.3 l 11.4,0 c 0.7,-2 2.2,-3.9 4.2,-4.9 1.2,-0.5 3,-1 4.9,0 1.3,0.7 2.2,1.8 2.7,3.2 -3.2,-1.5 -6,-0.8 -7.5,0 -1,0.5 -1.8,1.2 -2.7,1.8 l 3.2,0 c 0.2,0 0.2,-0.2 0.3,-0.2 1.2,-0.5 3.4,-1 5.9,0.2 l 3.4,0 c -0.5,-2.3 -1.7,-5 -4.2,-6.4 -0.2,-0.2 -0.5,-0.2 -0.7,-0.3 7.4,-1.8 12.4,-6.4 14.9,-8.9 1.2,6.2 4.2,11.7 8.2,15.7 l 2.8,0 c -0.2,-0.2 -0.3,-0.2 -0.3,-0.3 -10.1,-8.9 -13.7,-26.5 -1.7,-43.2 8.9,-12.2 5.7,-20.9 3,-25 -0.2,-0.2 -0.3,-0.3 -0.5,-0.7 -0.2,-0.2 -0.2,-0.3 -0.2,-0.3 l 0,0 c -1.3,-1.7 -3,-3.4 -4.9,-4.5 l 0,0 0,0 c -4.2,-2.7 -9.2,-4.2 -14.2,-3.9 -7.7,0.7 -13.4,3.9 -16.9,7.9 l -0.4,0 0,0 c -0.7,0.8 -1.2,1.5 -1.7,2.3 0.5,-2 1.2,-3.9 2.2,-5.7 l 0,0 c 5,-6.4 12.6,-7.9 17.9,-7.9 9,-0.2 18.9,3.5 23.3,8.7 6.5,7.7 8.7,15.2 6.9,23.6 -0.8,3.7 -2.5,7.4 -4.2,11.1 -3.2,7 -6.5,14.2 -4,21.4 -1.2,5.4 0.5,12.1 5.4,16.1 l 3.4,0 c 0,0 -0.2,0 -0.2,-0.2 -6,-3.5 -8,-11.9 -6,-17.1 1.2,-2.8 2.7,-5.4 4.5,-7.4 l 0,0 c 1.8,-1.5 3.7,-2.8 5.9,-4.2 18.3,-8.2 38.9,-1.3 51.6,17.4 2.7,4 4.5,7.9 5.4,11.4 l 2,0 c -1,-3.9 -2.7,-8 -5.7,-12.4 C 601.7,94.7 587.4,87 573,87.5 c 1.2,-0.2 2.3,-0.3 3.7,-0.5 2.2,-0.2 4.2,-0.2 6.4,-0.2 2.2,0 4.4,0.3 6.5,0.7 15.9,2.8 29.1,13.4 37.2,29.8 0.7,1.5 1.3,2.8 1.8,4.2 l 2.2,0 c -0.5,-1.7 -1.3,-3.4 -2.2,-5 -5.7,-11.6 -13.9,-20.3 -23.8,-25.5 4.9,1.8 9.4,4.2 13.6,7.2 8.7,6.4 14.7,14.6 17.4,23.3 l 2,0 c -2.7,-9.4 -9,-18.1 -18.3,-24.6 -4.7,-3.4 -9.9,-6 -15.4,-8 3.4,1.2 6.7,2.5 10.2,4.2 13.9,6.5 24,16.6 29.3,28.6 l 2.2,0 c -0.5,-1 -0.8,-2 -1.3,-3 l 0,0 -0.8,-1.7 0,0 c -1.2,-2.2 -2.7,-4.4 -4.2,-6.4 l -1.2,-1.7 -1.5,-1.5 c -2.5,-2.7 -5.2,-5.4 -8.2,-7.7 l -1.7,-1.2 c -2.8,-2 -5.9,-3.9 -9,-5.5 l -1.8,-1 -8.9,-3.7 -2.3,-0.8 -5,-1.5 -4.9,-1 -2.5,-0.3 c -2.8,-0.3 -5.7,-0.7 -8.7,-0.5 l -0.2,-2.7 c 0,-0.2 0,-0.2 0,-0.3 l 0,0 -1.2,-4.2 -1.2,-2.2 c -1,-1.8 -2.3,-3.7 -4,-5.2 -0.7,-0.7 -1.5,-1.3 -2.2,-1.8 l 0.3,0 c 0,-2.2 -0.7,-4.4 -1.8,-6 2.2,-1.7 3.4,-4 3.4,-6.7 0,-4 -2.5,-8.7 -6,-11.1 -2.8,-1.8 -6.2,-2.5 -9.4,-2.5 0,-1.5 -0.5,-4.5 -3.4,-6.5 -3.9,-2.8 -6.9,-3.4 -10.1,-2.5 -3.9,-3.9 -7.7,-3.9 -9.7,-3.5 -0.5,0.2 -1,0.2 -1.5,0.5 0.8,-6.4 -1.3,-14.1 -8,-17.6 -4.4,-2.3 -9.9,-3 -14.7,-1.8 -4.8,1.2 -9,3.9 -11.7,8 l 0.2,0.2 c -0.5,0 -1.2,0 -1.7,0.2 -1.3,-1.5 -3,-2.8 -4.5,-3.7 -2.7,-1.5 -5.5,-2 -7.7,-1.2 0.2,-2.5 -1.2,-5.5 -3.5,-7 -1.5,-1 -3.2,-1.2 -4.7,-0.7 -1.7,-1.2 -3.4,-1.8 -5,-1.7 -1.3,0.2 -2.7,0.8 -3.9,2 -3.2,-1 -7.4,-0.7 -10.7,1 -2.7,1.3 -4.4,3.4 -5,5.9 -1.2,-0.8 -2.5,-1.5 -4,-1.8 -2.5,-0.5 -4.9,0 -7.2,1.2 -5.7,2.8 -6,7.2 -6,7.2 -4,1.8 -6.9,8.5 -6.5,14.7 0.2,2.2 0.7,4.2 1.5,5.9 -1.8,0 -3.5,0.7 -4.9,1.7 -1.5,1.2 -2.3,2.7 -2.7,4.5 -1.3,-0.5 -2.8,-1 -4.5,-1.3 -12.4,-2.2 -20.8,6.9 -21.3,7.4 0,0 -3.2,-1 -5.9,1.3 -0.7,-5.4 -3.2,-9.5 -7,-11.6 -2.8,-1.5 -6.2,-2 -9,-1.2 -0.8,-1 -1.8,-1.8 -3.2,-2.3 -6.2,-2.5 -14.7,-0.3 -19.4,5.4 -2.5,-0.3 -5.5,0.7 -7.9,2.3 -2.8,-2.2 -6.4,-3.9 -10.6,-4.9 -1.8,-0.5 -3.7,-0.8 -5.7,-1 0.5,-2.2 1,-7.4 -4.4,-10.4 -3.5,-2 -8.7,-1.8 -13.1,0.3 -3.5,1.8 -5.5,4.5 -5.7,7.2 -1.8,0.5 -3.5,1.5 -4.5,3 -1.3,-0.7 -3,-1.3 -4.7,-1.5 -1.5,0 -3,0.2 -4.4,0.7 -0.8,-1.2 -2.5,-3 -6.4,-3.7 -2,-0.3 -3.9,0 -5.2,1 -1.5,1.2 -2.3,3 -2.5,4.2 -4.9,-2.8 -7.9,-2 -9.2,-1 -2,1.2 -2.8,3.7 -2.2,6.2 -1.7,0.7 -3,1.5 -3.5,2.7 -0.7,1.5 -0.8,3.9 3.2,7.2 0,0 -2,5.4 1,9.7 -1.8,1.3 -3.4,3 -4.5,5.4 -2.5,0.5 -5,1.3 -7.2,2.7 -1.3,0.8 -3.5,2.3 -3.5,2.3 -7.2,-0.5 -12.2,1.2 -14.9,4.9 -0.7,0.8 -1,1.8 -1.3,3 -6.5,-0.2 -10.6,1.8 -10.7,5.4 -0.2,1.5 0.5,2.8 1.3,4 l -0.3,-0.3 c -2.8,0.9 -3.8,3.6 -3.5,5.7 z m 23.3,10.9 c -0.8,1.7 -1.8,3.2 -2.5,5 -0.5,1.3 -0.3,4.5 -2.7,3.5 -3,-1.3 -3,-5.4 -2,-7.7 0.5,-1.2 1.5,-2 2.5,-2.5 0.8,-0.5 1.8,-0.7 2.7,-0.8 3,-0.5 2.8,0.5 2,2.5 z m 0.3,-4.7 c -1.8,0.5 -3.7,0.3 -5.4,1 -1.2,0.5 -2.3,2.3 -3.5,1.2 -1,-1 0.2,-3.5 0.8,-4.5 0.8,-1.2 3.5,-2.5 5,-2.7 1.3,-0.2 1.2,-0.3 1.7,1 0.8,1.4 2.4,3.5 1.4,4 z m -4.1,-12.4 c 0,-2 0.3,-4.4 1.7,-6 0.5,-0.5 2,-1.8 2.7,-1.8 1.3,-0.2 1.2,0.8 1.3,2 0.2,1.3 1,2.5 1,3.7 0,0.7 0,1.2 -0.2,1.5 -0.3,0.5 -0.8,0.8 -1.5,1.5 -1,1 -2.2,5.4 -3.7,4.5 -0.7,-0.3 -0.5,-0.7 -0.7,-1.2 -0.6,-1.1 -0.6,-2.8 -0.6,-4.2 z m 9,22.5 c -0.2,1.7 0.2,2.7 -2,2.5 -0.7,0 -1.2,0 -1.7,-0.2 -1,-0.2 0.7,-4.2 1,-4.7 0.5,-0.7 1,-1.5 2.2,-1.2 0.3,0.2 0.5,0.3 0.7,0.5 0.3,1.1 0,2.3 -0.2,3.1 z m 2.5,-10.7 c -0.7,1.7 -1,6.9 -3.5,5.4 -1,-0.5 1.2,-3.2 1.8,-4.7 0.7,-1.3 1.3,-2.8 2.2,-4.2 0.5,-0.7 1,-1.3 1.7,-1.8 0.2,1.6 -1.7,3.8 -2.2,5.3 z m 1.2,-7.6 c -1.2,1.2 -2.3,2.3 -3.5,3.7 -1.2,1.3 -2.7,4.5 -4.2,1.7 -1.2,-2.2 -0.7,-5.7 1.3,-7.5 1.3,-1.3 3.2,-2.7 5.2,-3 0.7,0 3.4,0.2 3.7,0.7 1.2,1.1 -1.7,3.6 -2.5,4.4 z m 7.2,-8.3 c -0.7,0.8 -1.5,2.3 -2.7,2.7 -0.3,0.2 -0.7,0.2 -1,0 -0.5,-0.2 -2.5,-1.3 -2.7,-1.8 -0.3,-0.7 -0.5,-2.2 -0.5,-3 -0.2,-2.7 0.7,-5.5 3.7,-6.9 2.2,-1 4.5,-1.8 7,-1.5 2.7,0.3 5,1.3 2.8,3.7 -2.3,2.4 -4.6,4.4 -6.6,6.8 z m 5.5,2.8 c 0.2,0.5 0,1.5 -1.2,2 -0.5,0.2 -1.5,0.7 -2,1 -1,0.7 -1.7,0.3 -1.8,-0.5 -0.2,-0.7 0.7,-2 1.5,-3.2 0,0 1.3,-1.7 2,-1.8 1.2,-0.2 1.3,2 1.5,2.5 z M 260.1,103 c 0.5,-2 1.7,-3.7 3,-5.7 0,0 1.3,-1.5 2.3,-1.2 1,0.3 -0.2,2 -1.2,3.7 -1,1.8 -0.3,5.7 -1.5,6.7 -1.1,1.2 -3.6,0.7 -2.6,-3.5 z m 1,10.6 c -1,-0.7 -0.8,-2.2 -0.3,-3 0.5,-0.8 2.2,-1.8 3.2,-1.8 1,0 2.5,1.2 3,2 0.5,0.8 0.5,1.2 0.2,1.3 -0.5,0.3 -1.7,0.2 -2.7,0.5 -1.2,0.3 -2.1,1.7 -3.4,1 z m 6.9,5.3 c -0.2,0.2 -0.2,0.5 -0.5,0.7 -0.5,0.3 -1.8,0.3 -2.5,0.5 -1.5,0.7 -2,1.3 -2.7,-0.7 -0.5,-1.3 -0.3,-2.7 0.7,-3.9 0.7,-0.8 2.3,-2 3.7,-1.5 1.8,0.8 1.8,3.6 1.3,4.9 z m -1.5,-11.7 c -1.5,-3.2 -1.2,-6.4 0.8,-9.4 1,-1.7 3.7,-2.8 6.4,-3 2.5,0 4.4,1.2 2,2.7 -1.7,1 -3.4,2 -4.2,3.7 -0.5,1 -1.7,3.2 -0.5,5.4 0.5,1 0,2 -1.3,2.7 -1.9,0.6 -2.7,-0.7 -3.2,-2.1 z M 279.9,93 c 0.5,1 2.3,1.7 2.7,2.3 0.3,0.8 -1.5,1.2 -2,0.7 -0.8,-1 -1.8,-2 -3.2,-2.5 -1.7,-0.8 -5.4,0 -5.4,-2.8 0,-1 1.5,-2 2.5,-2.7 0.7,-0.5 1.3,-0.3 2,-0.2 1,0.3 2.3,1 2.8,1.8 0.6,1.2 0.1,2.2 0.6,3.4 z m 12.4,-11.7 c -0.3,1.8 -1.7,0.7 -3.5,1.2 -0.8,0.3 -1.5,1.3 -2.5,1.5 -0.3,0 -2.7,-0.5 -2,-1 1,-0.8 2.8,-1.3 4,-1.7 1.3,-0.5 2.7,-1.2 4.2,-1.2 -0.1,0.3 -0.2,0.8 -0.2,1.2 z m 1.1,4.5 c 1.7,1.7 -4.9,4.4 -5.7,3.2 -0.8,-0.8 -1.2,-1.7 -1,-2.5 0.2,-1 1.2,-1.8 2.7,-2.3 1.4,-0.4 2.9,0.6 4,1.6 z m -8.7,7 c -1,1.2 -2.2,1.2 -3,-0.5 -0.3,-0.7 -0.2,-1.3 0.3,-2.2 0.5,-1 1.2,-1 1.3,-1 0.8,0 2.5,0.5 2.8,1.3 0.6,0.9 -0.7,1.6 -1.4,2.4 z m -0.3,-5.7 c -0.3,0.2 -0.8,0 -1.2,0.2 -1.2,0.2 -1.3,0.8 -2.3,0.2 -0.3,-0.2 -0.8,-1.5 -0.8,-1.8 0.2,-0.3 1.3,-0.8 2,-1.2 0.5,-0.2 0.8,-0.2 1,0 0.8,0.4 1.1,1.8 1.3,2.6 z m -14.6,28.5 c -0.8,-0.5 -0.3,-2.7 -0.2,-3.4 0.3,-0.8 2.3,-3.2 3.9,-3 0.3,0 0.8,0.2 0.8,0.5 0.7,3.4 -0.5,8.2 -4.5,5.9 z m 2.9,-9.7 c -0.7,-1.3 -0.2,-2.7 0.5,-3.9 1,-2 3,-3.5 5.5,-4 4.2,-0.8 2.3,2.8 3,5.4 0,-0.2 -3.7,2.5 -3.9,2.7 -1.8,1.5 -3.6,2.8 -5.1,-0.2 z m 8.8,14.7 c -0.3,0.8 -1,0.7 -1.7,0.3 -0.8,-0.3 -1.8,-1.2 -2.5,-1.8 -1.3,-1.3 -2,-3.2 -1.8,-4.9 0.2,-2.3 1.3,-4.7 2.8,-6.5 0.7,-0.7 1.8,-2 2.8,-2.2 0.5,-0.2 1.8,1 2,1.3 0.2,1 -0.7,1 -1.5,1.5 -1.8,1.2 -3.5,3 -3.9,5.2 -0.3,2 0.7,3.7 2.2,5 0.5,0.5 1.3,0.8 1.5,1.5 0.1,0.1 0.1,0.3 0.1,0.6 z m 7.7,-2.7 c -1.3,0.3 -2.8,-1.2 -4.7,-0.7 -0.8,0.2 -1.3,0.7 -1.8,1.2 -1.3,0.5 -3.4,-2.8 -3,-4.5 0.5,-2.5 3.4,-5.7 5.7,-3.4 1.2,1.2 2.7,2.2 4,3.4 1.4,0.9 2.5,3.4 -0.2,4 z m 28.4,-3.5 c -0.5,0.3 -2.5,-0.7 -3,-1 -1.3,-0.8 -2.7,-1.8 -4.4,-2.3 -2.2,-0.5 -4.5,-0.8 -6.7,-0.7 -1.7,0.2 -3.9,1.3 -5.5,0.8 -2,-0.8 -3.2,-4.5 -2.8,-6.4 0.3,-1.8 2,-3.4 4.5,-4.4 1.5,-0.7 3.4,-0.5 5.4,0.3 3.4,1.3 6,3.7 8.2,6.4 1,1.3 2,2.7 2.8,4.2 0.5,0.7 0.8,1.3 1.2,2.2 0.4,0.6 0.4,0.8 0.3,0.9 z m 1,-4.8 c -0.3,0.2 -0.5,0.2 -0.7,0.2 -0.7,0 -1,-0.5 -1.5,-1 -1.5,-1.7 -2.5,-3.7 -4,-5.2 -1.8,-1.7 -4,-3.4 -6.4,-4.4 -2.5,-1 -5,-1.2 -7,-0.3 -3.2,1.3 -5.2,3.4 -5.7,5.7 -0.3,1.7 0.2,3.2 1,4.5 1,2 2.5,2.7 0.2,4 -1.8,1 -4.5,-1.2 -5.7,-2.3 -2.5,-2 -4,-4.9 -4.9,-7.7 -0.8,-3 0,-6.4 2.5,-9.2 3.4,-3.9 9.2,-6.2 15.4,-6 11.4,0.2 15.7,10.4 18.3,19.6 0,0.4 -1,1.9 -1.5,2.1 z m -24.5,-28 c 0.2,-1 1.2,-2 2.7,-2.7 1.3,-0.7 3,-0.5 4.4,0.5 1.2,0.8 1.8,1.8 2.2,3.2 0.5,2 0.7,3.5 -1.8,3.5 -2.7,0 -5,1.3 -6.7,-1.3 -0.6,-1.2 -1,-2.2 -0.8,-3.2 z M 339.3,97 c -2.2,0 -4,-0.7 -5.7,0.8 -2.7,2.2 -0.8,5.2 -2,5.5 -2,0.3 -3.7,-2.2 -3.5,-4.2 0,-2 1.2,-4.5 3.2,-5.5 2,-1.2 5.2,-1.2 7.4,-0.7 1.2,0.3 1.8,0.8 2.2,1.8 0.4,2.1 0.1,2.5 -1.6,2.3 z m 0.9,3.2 c -0.2,1.2 -1,2.5 -1.5,3.5 -0.5,1.2 -0.8,3.2 -2.3,2.8 -1.2,-0.3 -2.3,-2.2 -2.5,-3.2 -0.2,-1.5 -0.2,-3.4 1.5,-4.4 1.4,-0.7 4.9,-0.9 4.8,1.3 z M 335.5,91 c -2.8,-0.2 -5.7,1.2 -7.5,3.2 -1.2,1.2 -1.8,2.8 -1.8,4.5 0,1.3 1,2.5 1,3.9 -0.2,1.3 -1.8,1 -3,1.7 -0.7,0.3 -1.5,1.3 -2.2,1.3 -1,0 -1,-1.3 -1.2,-2 -0.8,-3.2 -2.7,-5.9 -3.2,-9 -0.5,-3.2 -0.5,-6.5 1,-9.5 1.2,-2.3 3.7,-4 6.4,-4.7 3.4,-0.8 7.7,-1.3 10.6,0.8 3.2,2.3 4.9,6.5 5.4,10.1 0.3,1.7 -4,-0.3 -5.5,-0.3 z m -18.9,-7.4 c -2.5,-0.3 -4.2,0.2 -5,0.8 -0.8,0.8 -2.3,2.7 -3.4,2.8 -1.1,0.1 -2.7,-1.3 -2.7,-2.2 0.2,-1.7 -0.5,-3.4 0.7,-4.9 0.7,-1 1.8,-1.7 3.5,-2 2.2,-0.3 4.2,0.5 5.9,1.7 1.1,1.1 3.6,4.1 1,3.8 z m -1.2,9.2 c -1.5,-1.8 -3.2,-3.4 -5.2,-4.5 0.3,-1 1.2,-1.8 2.3,-2.3 1.1,-0.5 2.3,-0.7 3.5,-0.3 -0.8,2.4 -0.8,5.1 -0.6,7.1 z m 19.6,18.8 c -0.5,1.5 -1.5,2.8 -2,4.2 -0.5,1.7 -1.3,1.7 -3.4,1.5 -2.1,-0.2 -4.4,0 -6.4,0 -0.8,0 -1.3,0.2 -1.8,-0.2 -0.2,-0.2 -0.3,-0.3 -0.5,-0.5 -0.8,-1 -1.5,-3.2 -1.3,-4.4 0.3,-2.5 2.8,-5.5 5.4,-6.5 1.7,-0.8 3.9,-0.8 5.7,-0.3 1.5,0.3 4.9,1.8 5.2,3.2 0.3,0.6 -0.6,2.3 -0.9,3 z m 10.5,-0.2 c -0.5,1.7 -0.7,5 -1.7,4.5 -0.7,-0.2 -2,0 -2.7,-0.3 -1.5,-0.5 -5,0 -5.7,-1.3 -0.3,-1 1.7,-3.9 2.5,-4.5 0.3,-0.3 0.8,-0.5 1.3,-0.5 1.3,-0.2 6.8,0.8 6.3,2.1 z m 0.9,-2.3 c -1,0.3 -2.8,-1.2 -3.9,-1.3 -2.3,-0.5 -3.7,0 -2.3,-2.5 0.7,-1.3 1.3,-2.3 3.4,-2 2,0.3 3.4,1.5 4.2,3.2 0.1,0.6 -0.8,2.4 -1.4,2.6 z m 3,-7.2 c -0.7,1.5 -0.5,1.3 -1.8,0.8 -1.2,-0.3 -2.3,-1 -3.5,-1.3 -1.2,-0.3 -1.5,-0.3 -1.7,-1.3 -0.2,-0.7 0.5,-2.5 0.8,-3 l 0.2,-0.2 c 1.2,-0.8 4,-0.2 5.4,0.2 2.8,0.6 1.6,2.6 0.6,4.8 z m 0.8,-12.8 c 0.5,1.3 1.5,3.5 1,5 -0.7,1.7 -3.7,0.8 -5.4,0.8 -3.4,0 -3.7,-1.8 -2.8,-4.2 0.2,-0.7 0.7,-1.2 1.5,-1.5 1,-0.2 5.2,-1.6 5.7,-0.1 z M 348,84.8 c 0.3,0.5 1.3,1.3 0.5,1.7 -1.7,0.8 -5.7,2.2 -6.4,1 -0.8,-1.3 -2,-2.5 -2,-4.2 0,-1.5 2.5,-2.7 4,-2.3 0,0 0,0 0.2,0 1.4,0.4 2.9,2.6 3.7,3.8 z m 11.6,2.3 c -1.3,-1.8 -3.2,-3.7 -5.2,-5 -0.8,-0.7 -4.2,-2.5 -3.7,-3.4 0.5,-0.8 4.9,2 5.9,2.5 2.5,1.2 21.6,12.2 13.6,15.1 -6.7,2 -8.1,-5.8 -10.6,-9.2 z m 13.4,17.6 c -2.3,0.8 -5,0.5 -6.9,-1 -1.2,-0.8 -1.8,-2 -2,-3.4 -0.2,-0.8 -0.8,-2.5 0.2,-3 0.7,-0.3 2.2,0.5 2.8,0.7 1.3,0.3 2.5,0.3 3.9,-0.2 0.7,-0.2 1.3,-0.7 1.8,-1.2 0.8,-0.7 0.8,-1.3 1.3,-1.3 0.2,0 0.5,0.2 1,0.5 0.7,0.5 1.7,1.8 1.7,2.7 0.1,2.4 -1.9,5.7 -3.8,6.2 z m 26,-6.9 c -1.5,0.3 -3.5,0 -5.2,0.2 -4.9,0.5 -9.2,3.4 -11.7,6.4 -0.5,0.3 -1.5,-2.8 -2.3,-4.5 -0.3,-0.7 -0.5,-1.3 -0.5,-1.8 0,-0.7 0.5,-1.2 1.5,-1.8 1.7,-1 3.7,-2 5.7,-2.8 2.2,-0.8 5,-1.8 7.4,-1.7 2.1,0 5.2,5.9 5.1,6 z M 388.6,82.9 c 0.7,0.3 6.4,6.2 5.4,6.5 -2.7,1 -6,1.3 -8.7,2.5 -1.5,0.5 -2.8,1.2 -4.4,2 -0.8,0.5 -1.8,1.8 -3,1.7 -0.8,-0.2 -2,-1.5 -2.5,-2 -1.5,-1.7 -0.5,-2.5 1,-3.9 1.7,-1.5 3.5,-3.2 5.4,-4.4 1.8,-1.4 4.4,-3.5 6.8,-2.4 z m -10.1,-7.3 c 1.7,0 4,1.5 5.2,2.5 1.3,1 2.2,2.8 0.3,4 -2.2,1.3 -4,2.2 -5.9,3.9 -0.5,0.3 -4,4.4 -5.2,4.2 -1,-0.2 -1.5,-1.3 -2.3,-1.8 -1.5,-1.5 -1.3,-1.7 -0.2,-3.5 1.5,-2.5 3.4,-4.9 5.2,-7.2 0.9,-1 1.4,-2.1 2.9,-2.1 z m -10,-5.2 c 1.5,0.2 3.9,1.5 5.2,2.3 1.8,1 2.5,1.5 1.3,3 -2,2.7 -4.4,5.4 -6.2,8.2 -1,1.7 -1.3,1.5 -3,0.3 -1.8,-1.3 -4,-1.7 -3.7,-4.2 0.3,-2.7 2.2,-5.2 3.5,-7.4 0.7,-1.2 0.9,-2.4 2.9,-2.2 z m -9.9,-3 c 1.5,-0.3 3,0.3 4.4,0.8 3.2,1.3 2,2 0.3,4.5 -1,1.5 -1.3,3.5 -2,5.2 -0.5,1.2 -0.8,2 -1.5,2.2 -0.5,0.2 -1.2,0 -2.2,-0.5 -1.7,-0.8 -3,-0.8 -3,-2.7 0,-2.2 1.2,-4.7 2.2,-6.5 0.5,-1.2 0.5,-2.5 1.8,-3 z m -13.2,1.5 c 0.2,-0.8 0.5,-2.5 1.2,-3.2 1.2,-1 4,0 5.4,0.2 2,0.3 3.7,-0.2 3.4,2.2 -0.2,1.8 -1.2,3.7 -1.7,5.5 -0.3,1 -0.5,2.5 -1.3,3 l 0,0 c -1.3,0.7 -5.5,-0.5 -6.7,-1.3 -1.8,-1.1 -0.7,-5.1 -0.3,-6.4 z M 338,66 c 0.8,-1.5 4.9,-2.2 6.2,-0.8 1.3,1.3 -0.5,4.7 -1,6.2 -0.2,0.5 -0.5,2.5 -0.8,2.8 -1.7,1 -4.4,-0.2 -4.9,-1.5 -0.8,-1.5 -0.3,-5.2 0.5,-6.7 z m -8.2,0.5 c 0.2,-0.8 0,-1.5 0.5,-1.8 0.2,-0.2 0.3,-0.2 0.5,-0.3 1.2,-0.3 2,-0.2 3.2,-0.3 1,0 1.8,0 2.2,0.8 0.5,1 -0.2,3.4 -0.3,4.4 -0.2,1.2 0.2,4.4 -1.8,3.9 -0.2,0 -3.7,-0.2 -4,-0.3 -1.3,-1 -0.5,-5 -0.3,-6.4 z m -0.3,8.1 c 2.3,0.2 4.9,0.7 7.2,1.3 1.5,0.5 2.8,1.3 4,2.2 0.7,0.5 1.3,0.5 1.2,1.2 l 0,0.2 c -0.3,0.8 -2.5,1.5 -3.4,1.2 -1.2,-0.5 -2.7,-2 -3.9,-2.8 -1.5,-0.8 -3,-1.8 -4.7,-2.5 -0.5,-0.2 -1.2,-0.5 -1.7,-0.7 0.2,-0.1 0.6,-0.1 1.3,-0.1 z m -10.6,-6.4 c 0,-1.5 -0.3,-2.5 1.7,-2.8 1.5,-0.3 5.9,-1.5 7,-0.5 1,0.7 0.3,2.5 0.3,3.5 -0.2,1 0.3,3.5 -0.3,4.4 0,0 0,0 -0.2,0.2 -0.8,0.5 -4.2,0.2 -5.4,0.2 -0.5,0 -2.8,0.3 -3.2,0.2 -0.9,-1 0.1,-4.2 0.1,-5.2 z m 0.8,7 c 1.8,0.2 3.7,0.3 5.5,0.8 0.8,0.2 1.8,0.5 2.2,1.2 0.3,0.5 -4.5,2.2 -7,2.8 -2.2,0.7 -2.7,-1 -4.5,-2.2 -1.8,-1.2 -4.4,-1.8 -6.7,-1.5 -1.7,0.3 -2.7,1.2 -4,2 -1.7,1.2 -1.2,0.5 -2.8,-0.7 -0.2,-0.2 -0.5,-0.3 -0.7,-0.5 0.7,-0.7 2.5,-0.7 3.5,-0.8 1,-0.1 2.3,-0.7 3.4,-0.8 3.8,-0.3 7.4,-0.4 11.1,-0.3 z M 308,68.7 c 0,-0.3 0.2,-0.5 0.5,-0.7 0.7,-0.7 1.8,-0.8 2.8,-1 1.3,-0.3 3,-1 4.5,-0.8 1.7,0 1.2,0.8 1,2 0,1.5 0.3,4.5 -1.3,5 -1,0.3 -2.5,0.2 -3.5,0.3 -0.8,0.2 -1.8,0.5 -2.7,0.3 -1.2,-0.3 -1,-1.2 -1,-2.2 0,-0.7 -0.5,-2.1 -0.3,-2.9 z m -7.5,2 c 0.3,-1 3.9,-2.3 4.9,-2.2 1.8,0.2 1.7,3.5 1.5,4.5 -0.3,1.5 -3.2,2.3 -5,1.8 -0.2,0 -0.2,0 -0.3,-0.2 -0.8,-0.4 -1.3,-2.9 -1.1,-3.9 z m -2.2,0.5 c 1.2,-0.2 1.3,4.2 0.7,4.7 -0.8,0.8 -2.2,1 -3.4,1.2 -0.5,0 -1.5,0.5 -1.8,0.5 -1,-0.3 -1.2,-2 -1.5,-3.2 -0.5,-2.2 4,-2.9 6,-3.2 z m -12.4,5.7 0,0 c 0.5,-0.8 3.2,-2.3 4.2,-2.3 1,0 1.8,2 1.8,2.7 0,1.5 -2.7,1.8 -4.2,2.2 -1.2,0.5 -1.2,0.5 -1.7,-0.5 -0.3,-0.6 -0.4,-1.4 -0.1,-2.1 z m -9.4,5.9 c 1.5,-1.2 2.8,-2.5 4.5,-3.5 0.5,-0.3 1.8,-1.2 2.5,-1 0,0 0,0 0.2,0 3.2,2.7 -3.2,4.2 -5,5 -3.2,1.3 -6.2,3 -9,4.9 2.3,-1.8 4.5,-3.8 6.8,-5.4 z m 4.7,-9.6 0,0 c -0.7,0 -2,-1 -2.5,-1.3 -1.2,-0.5 -3.4,-0.3 -4.4,-1 -1.8,-1.5 1.5,-1.7 2.8,-1.7 1.6,0.2 8.6,3 4.1,4 z m 8.4,-5.7 c 0.2,-0.2 -2.8,-2.3 -3,-2.7 -1.3,-1.8 2,-2.7 3.9,-2.8 1.2,-0.2 5.2,0 5.4,1.5 -0.1,1.3 -5.1,3.3 -6.3,4 z m 10.5,-5.8 c -2.2,1 -2.2,0.7 -4.2,-0.3 -1.7,-0.8 -3.9,-1.3 -5.9,-1.2 -1.3,0.2 -2.7,0.5 -3.9,1.2 -0.8,0.5 -1.7,1.7 -2.5,1.8 -0.8,0.2 -2,-0.2 -2.8,-0.3 -2.7,-0.3 1.5,-4.4 2.3,-4.9 3,-2.2 7.2,-2.5 10.9,-2.5 2.2,0 4.2,1 5.7,2.2 0.7,0.5 2.2,1.7 2.3,2.3 0.3,1.2 -0.7,1.2 -1.9,1.7 z m -25.9,1.6 c -1,0.3 -2,0.7 -2.8,1.2 -1.5,-2.7 -1.5,-5.9 -0.2,-8.4 1.3,-2.5 3.9,-4.2 6.5,-4.4 5.9,-0.5 8.7,0.2 10.4,2.5 -1.2,0.2 -2.3,0.5 -3.4,1 -0.7,-1 -2.2,-1.7 -4.9,-2 -2.3,-0.3 -4.4,0.5 -5.5,2.2 -1.6,2.2 -1.6,5.1 -0.1,7.9 z m 9,-7.5 0,0 0,0 0,0 z m -7.2,0.7 c 0.8,-1.2 2.2,-1.7 3.7,-1.5 0.8,0.2 2.8,0.2 2.8,1.2 0,0.5 -2.5,2.3 -3,3 -0.5,0.8 -0.8,2.8 -1.8,3.4 -1.2,0.7 -2.2,-0.8 -2.3,-1.8 -0.4,-1.5 -0.4,-3 0.6,-4.3 z m 14.9,-7.7 c 0.7,-1 1.7,-1.7 3,-2 3.2,-0.7 4.5,0.7 5,1.3 -2,1.7 -3.7,3.5 -5,5.5 -1.3,0 -2.5,0 -3.7,0.2 -0.1,-1.2 -0.3,-3.4 0.7,-5 z M 314,57 c -2,0.8 -4,1.2 -6,1.7 -1,0.3 -2.7,1.2 -3.7,0.8 -1.7,-0.5 -2.2,-2.5 -0.7,-3.4 2,-1.2 5.2,-2 7.7,-1.7 1.3,0.2 3.4,0.8 3.4,1.7 0,0.4 -0.2,0.7 -0.7,0.9 z m 12.9,-3.2 c -0.2,0.5 -2.7,1 -3.4,1 -1.5,0.2 -3.9,1.3 -5.4,1.2 -1,-0.2 -2,-1.7 -3,-2.2 -1.2,-0.7 -2.5,-1 -3.9,-1 -2,-0.2 -4,0.2 -5.9,0.8 -1.2,0.3 -5.9,4.2 -6.4,1.5 -0.2,-0.8 0.7,-1.3 1.3,-1.7 1.3,-1 3,-2 4.7,-2.7 3.5,-1.5 7.4,-2.2 11.2,-1.8 2.3,0.2 4.5,0.7 6.7,1.7 1.2,0.5 2.3,1.3 3.2,2.3 0.8,0.2 1.3,0.2 0.9,0.9 z m 0.4,-3.2 c -2.8,-2.3 -6.7,-3.7 -10.6,-3.9 -3.9,-0.3 -7.5,0.3 -11.1,1.7 -1.8,0.7 -3.5,1.5 -5,2.7 -0.8,0.5 -1.5,1 -2.2,1.7 -0.5,0.5 -1.2,1.8 -1.7,1.2 2.2,-6.4 11.6,-9.5 18.3,-10.2 4.4,-0.5 8.9,-0.3 13.1,0.8 2.2,0.7 4.2,1.5 5.9,2.7 0.8,0.7 3,2.3 3.4,3.4 0.2,0.3 0,0.5 0,0.7 -0.5,1.3 -4.4,1.2 -5.9,1.5 -2.6,0.4 -2.6,-0.8 -4.2,-2.3 z M 314.9,38.5 c 0.2,-0.8 0.8,-4.7 5.7,-5.5 1,-0.2 1.7,0 2.3,0.5 1.5,1.2 1.8,4.2 2,6 -2.8,0.2 -5.5,0.7 -7.9,1.5 -0.6,-1.1 -1.3,-2 -2.1,-2.5 z m 126.8,59.7 c -0.5,-1.7 -1.5,-3.4 -2.7,-4.2 -0.5,-0.3 -0.8,-0.5 -1.3,-0.8 0.5,-1.3 1.5,-2.5 2.8,-3.4 2.7,1 4.4,4 5,5.5 -1.5,0.7 -2.6,1.7 -3.8,2.9 z m 5.7,-3.5 c -0.7,-1.7 -2.3,-4.5 -5,-6 1.7,-0.8 3.7,-1.5 5.4,-1.8 1.5,2 3,5.7 3,7.5 -1.2,-0.1 -2.4,0.1 -3.4,0.3 z m 10,0.8 c -1.7,-0.5 -3.2,-0.8 -4.7,-1 0,-2.3 -1.5,-5.9 -3,-8 2.7,-0.3 5.2,0 7.7,0.8 1.4,2.7 0.7,6.9 0,8.2 z m 5.6,2.2 c -1.3,-0.7 -2.5,-1.2 -3.7,-1.5 0.8,-1.7 1.3,-5 0.7,-7.9 2.2,1 4.4,2.3 6.5,3.9 -0.3,2 -1.2,5.2 -2.2,6.4 -0.3,-0.4 -0.8,-0.8 -1.3,-0.9 z m 3.3,1.6 c 1,-1.5 1.8,-4 2.2,-6 1.3,1 2.7,2 4.2,3 l 0.2,0.2 c -1,1.3 -2.7,3.2 -3.7,4.4 -1,-0.5 -2,-1 -2.9,-1.6 z m 4.5,2.6 c 1,-1.2 2.5,-2.8 3.5,-4.2 1.3,1 2.5,1.8 3.9,2.8 l -2.8,4 c -1.5,-1 -3,-1.8 -4.6,-2.6 z m 6.4,3.3 2.7,-3.9 c 0.5,0.3 0.8,0.7 1.3,0.8 1,0.5 2,1.2 3,1.7 l -2,3.7 c -1.8,-0.6 -3.5,-1.5 -5,-2.3 z m 11.2,5 c -1.5,-0.5 -3,-1.2 -4.5,-1.8 l 2,-3.5 c 1.2,0.7 2.3,1.2 3.5,1.8 l -1,3.5 z m -6.2,-9.3 c -2.8,-1.7 -5.5,-3.7 -8.5,-5.9 -7.5,-5.7 -15.4,-11.6 -24.3,-10.2 -5.2,0.7 -11.7,3.2 -13.7,7.9 -1.3,-0.3 -2.7,-0.3 -4,0 -2.3,0.7 -4.2,2.2 -5.2,4.4 -0.2,0.5 0,1 0.7,1.2 0.5,0.2 1.2,0 1.3,-0.5 0.7,-1.5 2,-2.7 3.9,-3.2 1.9,-0.5 3.9,0 5.5,1.2 1.8,1.3 2.8,5 2.3,6.9 -0.8,2.8 -3.7,5 -7.2,5.5 -3.7,0.5 -7.2,-0.5 -9.9,-2.8 -3.9,-3.4 -6,-9.4 -5.4,-14.7 1.7,-11.1 13.2,-16.9 22.6,-18.4 17.6,-3 28.1,6.7 39.2,17.1 8.2,7.5 16.6,15.4 28.3,18.1 6,1.3 12.1,-0.3 16.9,-2.8 -15.3,10.4 -29.4,3.9 -42.5,-3.8 z M 436.8,55.5 c 1.3,-1.8 2.7,-3.5 4.2,-5.2 1.7,-1.7 3.4,-3.4 5.4,-5 2.7,-2.2 5.7,-4.2 9,-5.9 10.6,-5.4 23.1,-6.7 35,-4.5 2,0.3 3.9,0.5 5.9,1 0.8,0.2 2.3,0.5 3.2,1 1,0.7 1,1.7 0,2 -1.5,0.7 -4.5,0 -6.4,0.2 -1.2,0.2 -2.5,0.3 -3.7,0.7 -1.3,0.5 -2.2,1.2 -3.9,1.2 -1.5,0 -3.2,-0.5 -4.7,-0.5 -3.2,-0.3 -6.5,-0.3 -9.7,-0.3 -6.4,0.2 -12.9,1.3 -18.6,4 -6.5,3.2 -11.7,8 -15.7,13.6 -1.2,1.5 -4,7.2 -4.2,5.4 -0.8,-2.2 2.9,-5.9 4.2,-7.7 z M 433,51.4 c -1.7,-2.3 -0.5,-5.5 2.3,-6.9 1.7,-0.7 6.2,0.2 6.2,2.2 0,1 -2.3,2.7 -3.4,3.9 -1,1.2 -1.8,2.5 -2.8,2.5 -0.6,0 -1.5,-0.5 -2.3,-1.7 z m 19.6,-26.3 c 6,-4 14.4,-4.7 25,-2 -1.2,0.2 -2.2,0.3 -3.4,0.7 -4.5,1 -8.4,2.8 -11.7,5 -6.7,0.3 -11.1,3.4 -13.6,5.9 -3,3 -4.7,6.9 -4.7,10.1 -0.2,0.2 -0.3,0.3 -0.5,0.5 0,-8.9 3.2,-16.3 8.9,-20.2 z m -5.7,-5.8 c 0,-1 0.7,-1.8 1.8,-2.3 0.8,-0.3 1.3,-0.2 1.7,0 2,1.3 3.2,5.2 1,6.5 -0.3,0.2 -0.7,0.3 -1,0.3 -1.8,0.3 -3.7,-2.9 -3.5,-4.5 z m 81.6,12 C 528,31.1 527.5,31 527,31 c -1,-0.2 -2,-0.2 -3.2,0 0.8,-5.2 -1.3,-8 -3.5,-9.4 -3.5,-2.3 -8.9,-2.5 -12.1,-1.3 -0.5,-0.7 -1.2,-1.2 -1.7,-1.5 2.2,-1.7 5.4,-2.5 8.9,-2.5 4,0.2 7.7,1.5 10.1,3.9 4.1,4.1 3.6,9.6 3,11.1 z m 1.5,4.9 c -3.4,0 -6.9,0.2 -10.1,0.8 -0.2,-0.5 -0.5,-1 -0.8,-1.3 0.8,-1.8 4.5,-3.2 7.5,-2.8 1.5,-0.1 3.2,0.8 3.4,3.3 z M 519.1,23 c 2.5,1.7 3.4,4.5 2.5,8.4 l 0.5,0 c -0.3,0.2 -0.7,0.2 -0.8,0.3 -1.2,-0.7 -2.3,-1.2 -3.5,-1.7 0.3,-1.8 -0.2,-3.5 -1.3,-4.9 -1.3,-1.5 -3.5,-2.2 -6.2,-2 -0.3,-0.5 -0.5,-0.8 -0.8,-1.3 2.6,-0.9 6.9,-0.7 9.6,1.2 z m -3.4,6.3 c -1.3,-0.3 -2.5,-0.5 -3.7,-0.5 -0.2,-1.3 -0.7,-2.7 -1.2,-3.9 1.7,0.2 3,0.7 3.9,1.5 0.9,0.7 1.2,1.7 1,2.9 z m 3.6,3.4 c -0.7,0.5 -1.2,1 -1.7,1.5 -0.3,-0.2 -0.7,-0.5 -1,-0.7 -2.2,-1 -4.9,-1 -7.2,0.2 -3,1.3 -4.9,3.4 -5.2,5.7 0,0.3 0,0.5 0,0.8 -0.5,-0.2 -1.2,-0.3 -1.7,-0.3 -0.7,-1.8 0.2,-4.9 3,-7.2 3.4,-2.7 8.4,-2.7 13.8,0 z M 504,31.5 c -1.5,1.2 -2.5,2.7 -3.2,4.2 -16.8,-5 -31.8,-4.5 -44.9,1.7 3.7,-4.7 10.2,-9.7 18.9,-11.7 9.5,-2.3 19.8,-0.5 30.3,5.2 -0.4,-0.1 -0.8,0.3 -1.1,0.6 z m -51.9,7.7 c -2,1.2 -3.9,2.3 -5.7,3.7 0.5,-2.2 1.7,-4.7 4,-7 1.8,-1.8 4.7,-4 9,-4.9 -3.1,2.5 -5.6,5.5 -7.3,8.2 z m 30.1,-16.6 0,0 c -9.5,-3.2 -17.6,-3.9 -24.1,-2 1.7,-1.5 4.4,-2.8 7.5,-3.9 0.7,-0.2 1.3,-0.3 2.2,-0.5 l 0,0 c 0,0 0.2,0 0.2,-0.2 5,-1.2 11.2,-1.3 15.9,1.3 3.9,2 4.4,4.4 4.2,5.5 -1.8,0 -3.9,-0.2 -5.9,-0.2 z m 3.4,61 C 482.2,79.9 478.9,76.1 475,72.7 l 0,0 c -2.8,-5.7 -2,-12.2 0.7,-16.8 -0.2,1.3 0,2.7 0.3,4 0.7,3.4 2.8,7.9 9,11.1 -0.3,0.8 -0.7,1.7 -0.8,2.3 -0.8,2.6 -0.6,6.8 1.4,10.3 z M 472.2,70.4 c -2,-1.7 -4,-4 -6.2,-4 l 0,0 c 0,-8.4 4.5,-13.9 11.9,-17.1 -0.5,0.8 -0.8,1.7 -1.2,2.5 -4,4 -6.5,11.5 -4.5,18.6 z m -29,-17.3 c 1.3,-1.3 2.7,-2.5 4.2,-3.7 0,2.2 0.7,4.5 2,5.7 -1.2,1 -2.2,2 -2.8,3 -2.1,-0.5 -3.4,-2.5 -3.4,-5 z m 1.7,6.7 c 0.2,1.8 -2.7,2.2 -4.2,2.7 -1.3,0.3 -4.5,1.5 -4.2,0.3 0,-1 0.8,-2.7 1.5,-3.5 0.7,-0.8 1.8,-3.4 3,-3.5 1.3,-0.2 3.5,2.8 3.7,3.9 0.2,-0.1 0.2,0.1 0.2,0.1 z m 28,-10 c -2.2,1.5 -4,3.4 -5.4,5.4 -7.5,-0.8 -12.2,4.9 -13.7,6.9 -2.5,-0.3 -4.9,-0.5 -7,-0.3 2.4,-4.8 9.3,-12.2 26.1,-12 z m -23.5,-1.5 c 1.3,-0.8 2.7,-1.5 4.2,-2.2 -0.7,1.8 -0.7,4.2 0.8,5.9 -1.3,0.7 -2.5,1.5 -3.5,2.2 -1.2,-0.9 -1.8,-3.4 -1.5,-5.9 l 0,0 z m 6.7,-3.4 c 1.8,-0.7 4,-1.3 6.2,-1.8 -1,1.8 -1.7,4.4 -0.8,6 -2,0.5 -3.7,1 -5.4,1.8 -1.5,-1.7 -1,-4.5 0.2,-5.9 l -0.2,-0.1 z m 8.5,-2.2 c 1.7,-0.3 3.5,-0.5 5.4,-0.5 -1,1.8 -1.5,4.2 -1.3,6 -1.8,0.2 -3.5,0.3 -5.2,0.7 -0.8,-1.2 0,-4.4 1.3,-5.9 l -0.2,-0.3 z m 11.3,5.2 c -0.2,0 -0.2,0.2 -0.3,0.2 l 0,0 c -1.7,-0.2 -3.4,-0.2 -5,0 -0.3,-1.8 0.3,-4.4 1.7,-6 1.5,0 3.2,0 4.7,0 -1.3,1.8 -1.5,4.1 -1.1,5.8 z m -9.6,8.9 c -1.3,2.5 -2.2,5.2 -2.3,8.2 -1.2,-0.5 -2.3,-1 -3.7,-1.5 -1.5,-0.5 -3.2,-0.8 -4.7,-1.2 1.8,-2 5.4,-5.7 10.7,-5.5 z m 11.6,-9.7 c -0.2,-1.3 0,-3.4 1.7,-4.9 1.3,0.2 2.8,0.3 4.4,0.5 -1,0.7 -2,1.7 -3,2.7 -0.3,0.3 -0.7,0.7 -1,1.2 -0.9,0.1 -1.6,0.3 -2.1,0.5 z m -30.7,16.2 c 4.4,-0.2 8.7,0.7 12.7,1.8 10.1,3.4 18.8,13.2 26.3,22.1 3.7,4.4 7.4,8.4 10.6,11.1 2.8,2.3 6,4 9.7,5.2 5.9,1.7 10.1,0.5 11.1,1.3 1.3,1.2 -5.7,1.3 -9,0.5 -11.1,-2.5 -19.4,-10.2 -27.3,-17.6 -11.1,-10.2 -22.3,-20.8 -41,-17.6 -2.7,0.5 -5.2,1.2 -7.7,2.2 -2,0.7 -3.7,2.2 -5.7,2.7 -1.8,0.5 -3.9,-1.7 -3.5,-3.5 0.5,-2 3.9,-2.8 5.7,-3.5 5.7,-2.7 11.3,-4.5 18.1,-4.7 z m 81.3,12.3 c -2.5,0.5 -5.4,0.5 -8.5,0 -0.7,-1.7 -0.5,-3.7 0.7,-5.5 0.8,-1.3 2,-2.2 3,-2.3 1.2,0.7 2.7,1.2 4.7,1.3 -0.7,0.8 -1,1.8 -1.2,2.8 -0.1,1.5 0.4,2.7 1.3,3.7 z m -9.6,-6.4 c -1.2,1.8 -1.7,4 -1.2,6 -0.3,0 -0.7,-0.2 -1.2,-0.2 -2,-0.5 -3.9,-1.2 -5.4,-2.2 -0.7,-1.7 0,-3.9 1.8,-5.9 1.8,-2 4.4,-3.4 6.5,-3.2 0.7,1 1.3,2 2.3,2.7 -0.9,0.6 -2.1,1.6 -2.8,2.8 z m -3.8,21.3 c 2.5,4.5 7.7,7 14.1,6.9 0,0.2 0,0.5 0,0.7 -0.5,0.8 -3.7,6 -13.7,3.7 -4,-1 -6.9,-3.5 -8,-7 -1.8,-5.7 0.8,-13.2 6.5,-18.6 0.7,0.2 1.3,0.5 2,0.7 0.2,0 0.2,0 0.3,0 -3.1,3.7 -3.6,9.2 -1.2,13.6 z M 498.5,80.3 c 2.2,2.3 5.7,3.4 7.7,3.7 -0.5,1.3 -0.8,2.7 -1.2,4 -1,0.2 -4,0.2 -7.5,-2.5 -7,-5.2 -4.9,-11.9 -3.7,-14.6 1.8,-3.9 7.2,-5.2 8.5,-5.5 0.2,0.5 0.3,0.8 0.7,1.3 -2.7,1 -4.7,3.2 -5.5,5.9 -1,2.8 -0.5,5.8 1,7.7 z m 7,14.7 c 1.3,4 4.4,6.9 8.7,8.2 -5.9,-0.2 -11.4,-2.3 -16.3,-6.2 -2.7,-2.2 -5.5,-5.4 -8.7,-9 3,2.3 7.9,4.4 15.6,4.4 0.2,0.9 0.4,1.8 0.7,2.6 z m 5.9,-29.2 c -1.5,1.7 -2.3,3.5 -2.5,5.4 -2.3,-1.8 -4,-4.4 -5,-7.2 0.8,-1.8 2.7,-3.5 4.9,-4.5 1.8,-0.8 5,-1.7 8.7,-0.5 0.2,1 0.5,2 0.8,3 -2.2,0.2 -4.9,1.5 -6.9,3.8 z m -7.4,2.7 c 1.8,2.8 4.7,5.2 8,6.9 -2.2,2.2 -3.9,4.5 -5,6.9 -1.5,-0.2 -5,-0.8 -6.9,-3 -1.2,-1.3 -1.5,-3.7 -0.7,-6 0.8,-2.3 2.4,-3.9 4.6,-4.8 z m -1.8,-17.2 c -2.2,-0.8 -4.4,-0.8 -6.5,0 -2.8,1 -4.9,3.2 -5.5,4.9 -0.7,2 1,4.9 2,6.2 -1.2,0.7 -2.2,1.7 -3.2,2.5 -1.5,-1 -2.7,-2.5 -3.4,-4.4 -1,-2.7 -0.7,-5.7 0.5,-7.9 1.3,-2.3 3.9,-4 6.5,-4.9 3,-0.8 6.5,-0.3 10.2,1.3 -0.1,0.8 -0.5,1.6 -0.6,2.3 z M 501,60 c -2.8,0 -5.2,0.7 -7.2,1.5 -1,-1.5 -2.2,-3.7 -1.8,-4.9 0.3,-1 2,-2.8 4.4,-3.7 1.7,-0.7 3.5,-0.5 5.2,0.2 -0.6,2.2 -0.8,4.5 -0.6,6.9 z m 0.3,1.8 c 0.2,0.7 0.3,1.3 0.5,2 -2,0.3 -7.7,2 -9.9,6.5 -3,6.4 -1.3,12.4 4.2,16.6 3.7,2.7 7,3 8.7,2.8 0,0.3 0,0.5 0,0.8 -7.5,0 -13.1,-2 -16.3,-5.9 -3.2,-3.9 -3.2,-8.5 -2.3,-10.9 2.1,-5.5 5.6,-11.7 15.1,-11.9 z m -6.7,50.4 c -1.5,-0.3 -3,-0.8 -4.4,-1.2 l 0.8,-3.4 c 1.2,0.5 2.3,1 3.5,1.3 l 0,3.3 z m 2,0.4 0,-2.8 c 1.5,0.5 2.8,0.8 4.4,1.2 l 1,2.5 c -1.8,-0.2 -3.5,-0.4 -5.4,-0.9 z m 12.1,1.3 c -1.5,0 -3,0 -4.5,-0.2 l -0.8,-2.3 c 2,0.3 3.9,0.3 5.9,0.3 l 1.2,2.2 c -0.8,0 -1.3,0 -1.8,0 z m 3.7,-0.3 -1,-2 c 1.3,-0.2 2.7,-0.5 4.2,-0.8 l 2.2,1.3 c -1.7,0.7 -3.6,1.2 -5.4,1.5 z m 7.2,-2.4 -1.8,-1.2 c 1.5,-0.5 3,-1.2 4.5,-2 l 1.3,0.8 c -1.2,0.8 -2.5,1.6 -4,2.4 z m 5.5,-3.6 -1,-0.7 c 1.7,-1 3.5,-2.3 5.2,-3.9 0,0.2 0,0.3 0,0.5 -0.5,0.7 -2,2.4 -4.2,4.1 z m 4.4,-12.1 c -7.9,0.3 -11.2,-3.5 -12.6,-5.9 -2.2,-3.9 -1.5,-9 1.3,-12.4 l -0.3,-0.3 c 1.8,0.3 3.7,0.5 5.4,0.7 -1.3,3 -1.3,5.7 0,7.5 1,1.5 3,3.2 7.7,3.5 -0.9,2.5 -1.4,4.7 -1.5,6.9 z m 12.4,-27.6 c -0.8,3 -2.5,6 -4.7,9.2 -2.3,3.4 -4.2,6.7 -5.5,10.1 -3.2,-0.2 -5.5,-1.2 -6.5,-2.7 -1,-1.7 -0.8,-3.9 0.5,-6.7 3.4,-0.2 6.5,-1 9.2,-2.5 3.1,-2.1 5.5,-4.8 7,-7.4 z m -12.8,4.3 c 0,-1.2 0.8,-2.3 1.8,-3 1,-0.2 2,-0.3 3.2,-0.7 0.2,1.3 0.8,2.7 1.7,3.5 -0.7,0.5 -1.5,1.2 -2.3,1.7 -1,0.5 -1.8,1 -3,1.3 -1.2,-0.9 -1.4,-2.1 -1.4,-2.8 z m 8.3,-1.5 c -0.5,-0.5 -1.3,-1.5 -1,-2.8 0.5,-0.2 1,-0.5 1.5,-0.7 1.5,-0.7 2.8,-2 3.7,-3.5 -0.7,2.1 -2.1,4.8 -4.2,7 z m 0.6,-19.1 0,0 c 0.5,0.5 1.2,1.2 1.7,1.8 0.3,0.8 1,3.2 -2.5,6 -2,1.7 -4.5,2 -6.5,1 -2,-1 -2.8,-3 -2.5,-5.2 0.3,-1.5 1.3,-2.7 2.8,-3.5 2,-1.1 4.7,-1.1 7,-0.1 z m -3.8,-2.5 c -1.5,0 -2.8,0.3 -4.2,1 -2.2,1 -3.5,2.8 -4,4.9 -0.5,3 0.8,5.9 3.5,7.2 2.7,1.3 6.2,0.8 8.9,-1.2 1.7,-1.3 2.5,-2.7 3,-3.9 0.5,2.5 -1.7,7.2 -4.5,8.7 -4.9,2.3 -9.2,2.5 -12.6,0.5 -3.5,-2.2 -5.2,-6.5 -4.7,-9.5 0.3,-2.2 1.8,-4.2 4.4,-5.7 3,-2 6.8,-2.7 10.2,-2 z m -12.1,-3.4 c 2.7,-0.2 5.7,0.2 8.7,1.3 -2.8,0.2 -5.7,0.8 -8,2.2 -1.3,0.8 -2.5,1.8 -3.4,2.8 -2.2,-1.5 -6.5,-2.2 -10.4,-1.5 3.2,-2.4 7.6,-4.3 13.1,-4.8 z m -15.7,7.6 c 4,-1.7 9.7,-1.2 12.1,0.5 -0.5,0.8 -0.7,1.7 -0.8,2.5 0,0.2 0,0.5 0,0.7 -3.4,-0.8 -6.7,-0.5 -9.5,0.8 -1.8,0.8 -3.5,2.2 -4.7,3.7 0,-0.2 0,-0.5 -0.2,-0.7 l 0,0 c 0,-2.5 1.2,-5.2 3.1,-7.5 z M 504,47.4 c -4,-1.8 -8,-2.3 -11.6,-1.3 -3.4,0.8 -6.2,2.8 -7.9,5.7 -1.5,2.5 -1.8,6 -0.7,9.2 0.8,2.3 2.2,4.2 4,5.4 -0.7,1 -1.3,2 -1.8,3 -5.4,-2.8 -7.2,-6.9 -7.9,-9.7 -0.8,-4 0.3,-8.2 2.8,-11.6 l 0,0 0,0 c 0.3,-0.5 0.8,-1 1.2,-1.3 5.7,-5.7 11.6,-6.9 22.3,-4.2 0.3,0.7 0.8,1.5 1.7,2.3 -0.7,0.7 -1.4,1.5 -2.1,2.5 z m 3.5,-4.2 C 506.3,42 506,40.9 506,39.7 c 0.2,-1.7 1.7,-3.2 4.2,-4.4 1.8,-0.8 3.9,-0.8 5.5,-0.2 1.2,0.5 2,1.3 2.3,2.2 -1.2,0.3 -2.3,0.7 -3.4,1.2 -2.7,1.2 -5.2,2.9 -7.1,4.7 z m 53.3,45.4 c -5.5,2.7 -10.9,6.9 -14.1,13.4 -0.7,-5.7 2,-11.6 4.7,-17.3 1.7,-3.7 3.5,-7.5 4.4,-11.4 2,-8.9 -0.5,-17.1 -7.4,-25.1 -4.9,-5.7 -15.2,-9.5 -25,-9.4 -2.2,0 -4.5,0.3 -7,0.8 5.5,-2 14.9,-2.5 20.9,-1 17,4.1 30.9,23.1 23.5,50 z M 531.7,34.5 c 2.3,-0.8 4.4,-1 6,-0.3 2.3,0.8 3.5,3 4,4 -1.3,-0.5 -2.7,-0.8 -4,-1.2 -1.7,-0.3 -3.7,-0.7 -5.9,-0.8 0.2,-0.7 0,-1.2 -0.1,-1.7 z m 12.2,4.5 c 1.7,-1.7 3.9,-2.5 6,-2 2.3,0.5 4.4,2.3 5.2,5.2 -1.3,0.5 -2.5,1.2 -3.5,1.8 -2.2,-1.9 -4.9,-3.6 -7.7,-5 z m 20.4,17.6 c -1,0 -2,0.2 -3,0.3 -1.7,-3.7 -3.7,-6.9 -6.2,-9.5 2.8,-1.2 5.2,-1.3 7,-0.8 1.5,0.5 2.7,1.5 3.5,3 1.8,3.4 -1.7,6.7 -1.7,6.7 l 0.4,0.3 z m 5.4,3.5 c 2.2,1.3 3.5,3.5 3.7,6 -3.2,-2 -6.9,-3.2 -10.1,-3.4 -0.3,-1.3 -0.8,-2.7 -1.3,-4 2.7,-0.6 5.5,-0.1 7.7,1.4 z M 569,85.8 c -1.8,0.5 -4,1.2 -6,1.8 0.3,-1.3 0.7,-2.7 0.8,-4 3.7,-1.2 6.7,-0.3 8.2,1.3 -1,0.4 -2,0.5 -3,0.9 z m 5.2,-1.2 c -1.5,-2.5 -5.4,-4.2 -9.9,-3 0.2,-1.3 0.3,-2.5 0.3,-3.9 2,-0.7 4,0 5.4,0.5 2.8,1.3 5,4 5.7,6 -0.5,0.2 -1,0.4 -1.5,0.4 z m 3.7,-0.5 c -0.8,-2.7 -3.5,-5.9 -6.9,-7.4 -2.2,-1 -4.2,-1.3 -6.2,-0.8 0,-1.5 0,-2.8 0,-4.2 7,-0.5 13.2,5.9 14.6,12.2 -0.7,0.2 -1.2,0.2 -1.5,0.2 z m -2,-13.7 c 3.9,3.7 6,8.5 6,13.6 -0.2,0 -0.5,0 -0.7,0 -1.5,-7.4 -8.5,-14.6 -16.8,-13.9 -0.2,-1.8 -0.5,-3.7 -0.8,-5.4 4.2,0.1 8.8,2.3 12.3,5.7 z m -6.2,-25.5 c 3,2 5.2,6 5.2,9.5 0,1.5 -0.5,3.7 -2.5,5.4 -0.5,-0.5 -1,-0.8 -1.5,-1.2 -1.3,-0.8 -3,-1.5 -4.7,-1.8 1.2,-1.5 3,-4.5 1.3,-7.9 -1,-2 -2.5,-3.4 -4.5,-4 -2.5,-0.8 -5.5,-0.5 -9.2,1 -0.2,-0.2 -0.3,-0.3 -0.7,-0.7 4.2,-2.8 11.6,-3.6 16.6,-0.3 z M 557,35.7 c 2.3,1.7 2.5,4.2 2.5,5.4 -0.8,0.2 -1.7,0.3 -2.3,0.5 -1.2,-3.4 -3.5,-5.7 -6.7,-6.2 -2.5,-0.5 -5,0.2 -7,1.7 -0.2,-0.3 -0.3,-0.5 -0.5,-0.8 5.6,-3.5 8.8,-4.5 14,-0.6 z M 538.7,30 c 1.8,-0.3 4.5,-0.2 7.4,2.3 -1.3,0.5 -2.8,1.3 -4.4,2.2 -0.8,-0.8 -1.8,-1.7 -3.2,-2.2 -1.2,-0.5 -2.3,-0.7 -3.7,-0.5 0.9,-0.8 2.4,-1.5 3.9,-1.8 z M 514.4,10.9 c 4.4,-1 9.5,-0.3 13.2,1.7 6.4,3.4 8.2,11.2 6.7,17.3 -1.2,0.7 -2,1.7 -2.5,2.7 -0.5,0.2 -0.8,0.3 -1.3,0.5 -0.2,-0.2 -0.5,-0.5 -0.7,-0.7 1.2,-2.3 1.5,-8.5 -3.4,-13.4 -2.7,-2.7 -6.9,-4.4 -11.4,-4.5 -4.2,-0.2 -8,1.2 -10.7,3.4 -0.2,0 -0.2,-0.2 -0.3,-0.2 2.9,-3.6 6.2,-6 10.4,-6.8 z m -9.7,8.9 c 2.5,1.5 4.7,5 5.5,9.2 -1.2,0.2 -2,0 -2.8,0.3 -0.7,-0.3 -1.3,0.3 -2,-1.3 l 0.2,0 c 0,-3.4 -1.3,-6.4 -3.4,-9 0.8,-0.2 1.6,0.3 2.5,0.8 z m -9.6,-4.6 c 3.9,2.2 7.7,6.7 8.2,12.1 -2,-1 -4,-1 -6.2,-2.7 l 0,0 c 0,-3.4 -2.7,-8.4 -7.4,-10.7 1.8,-0.5 3.6,0.3 5.4,1.3 z M 483.7,7 c 1.5,1 2.8,3.4 2.7,5.5 -1.3,-0.5 -2.8,-0.8 -4.4,-1 0.5,-1.2 1,-3.4 -0.2,-5.2 0.8,0.1 1.4,0.4 1.9,0.7 z m 2.4,7.4 c 3.4,1.2 8.7,3.9 9,10.1 -1.7,-0.5 -3.4,-0.8 -5,-1.2 0.2,-1.7 -0.3,-4.9 -5.2,-7.4 -3,-1.7 -6.7,-2.3 -10.9,-2.3 3.4,-0.7 7.9,-0.7 12.1,0.8 z M 475.5,5 c 1.2,-0.2 2.5,0.3 4,1.5 1.8,1.3 1,3.9 0.5,4.9 -1.3,0 -2.5,0 -3.7,0 0.2,-1.7 -0.5,-3.9 -3,-5.4 0.7,-0.6 1.4,-1 2.2,-1 z m -13.9,2.9 c 3,-1.5 7,-1.8 9.7,-0.7 3.2,1.3 3,3.5 2.8,4.5 -2,0.3 -3.7,1 -4.9,1.8 0,0 0,0 0,-0.2 -0.2,-1.8 -1.3,-4 -4.9,-5 C 463.1,8 462,8 460.8,8.2 461.1,8 461.5,7.9 461.6,7.9 Z m -4.2,5.5 c 0.2,-0.2 2.3,-4.5 6.4,-3.4 2.7,0.8 3.4,2.5 3.4,3 0.2,0.7 0,1.2 -0.2,1.3 -0.7,0.2 -1.3,0.3 -2.2,0.5 -1.7,0.5 -3.2,1.2 -4.5,1.8 -0.7,-0.8 -1.7,-2.2 -3.2,-3.5 l 0.3,0.3 z m -12,-0.7 c 1.8,-1 3.7,-1.3 5.7,-0.8 2.3,0.5 7,3.4 7.4,5.7 0.2,1 -2.8,4.2 -4,3.5 -0.7,-0.3 -0.7,-2.3 -0.8,-2.8 -0.3,-1 -0.8,-2 -1.8,-2.7 -0.7,-0.5 -2,-0.8 -3.7,-0.3 -1.8,0.7 -3,2.2 -3.2,4 0,1.3 0.5,2.8 1.3,4 0.8,1 2.3,1.5 2.3,2.7 0,0.7 -1.5,2.8 -2.3,3 -2.3,0.5 -5,-5.2 -5.4,-6.7 -0.2,-0.8 -0.3,-1.5 -0.3,-2.3 -0.1,-2.9 1.6,-5.4 4.8,-7.3 z m -5.5,12.6 c 0.5,0.2 1.5,2 2,2.3 1.2,1.3 2.5,2 2.7,3.5 0,0.3 0,0.8 0,1.2 -0.2,1 -0.8,3.9 -2.3,4 -1.7,0.2 -3.4,-2.8 -3.9,-4 -0.5,-1.5 -0.5,-3.2 -0.2,-4.7 0.1,-1 0.3,-2.6 1.7,-2.3 z m -5.9,2 c 0.3,-1.2 0.8,-2.8 1.7,-3.9 0.7,-0.7 1.5,-1.7 2.5,-1.8 1,2 -1.7,3 -2.2,6.4 -0.3,2.5 0,5 1.7,7.2 0.7,1 1.7,1.7 2.7,2.3 0.7,0.3 1.8,0.7 2.2,1.3 0.5,1.2 -0.2,4.9 -1.8,5 -1.3,0.2 -3.9,-2.5 -4.4,-3.4 -1.3,-1.8 -2.2,-4 -2.3,-6.2 -0.6,-2.4 -0.6,-4.4 -0.1,-6.9 z m -4.4,14.9 c 0.8,-0.7 2.2,-1.3 3.2,-1.3 1.2,0 2,0.8 2.3,1.7 -1.2,0.7 -2.2,1.5 -3,2.5 -0.5,0.7 -0.7,2.2 -1.7,2.7 -0.7,0.3 -3.2,-0.5 -3,-1.2 0.2,-2 1.1,-3.4 2.2,-4.4 z m -8.8,3.7 c 3.9,0.7 7.5,2.5 10.1,5.4 1.2,1.3 2.7,2.8 2.7,4.7 0,1.9 -1.2,2.7 -2.3,0.8 -1,-1.3 -2.2,-2.7 -3.4,-3.7 -2.5,-2.2 -5.7,-3.9 -9.2,-4.7 -2,-0.5 -4.2,-0.5 -6.4,-0.3 -1.2,0 -2.2,0.3 -3.4,0.5 -0.5,0 -1.8,0.7 -1.7,-0.2 1.7,-3.3 10.4,-3.2 13.6,-2.5 z m -18.3,6.4 c 4.4,-3.9 11.7,-2.8 15.6,-2 3,0.7 5.9,2.2 8.2,4 3.4,2.8 6.7,6.4 3.5,10.6 -1,1.3 -2.5,1.7 -4,2.3 -2.8,1.5 -2.3,0.5 -2.5,-1.8 0,-1.7 -0.2,-3.5 -0.7,-5.2 -0.8,-3.4 -2.8,-6.4 -6.4,-8.2 -2.2,-1.2 -4.7,-1.2 -7.2,-1 -2.5,0.3 -7.7,2.6 -6.5,1.3 z m 8.5,3.3 c -1.2,-1.5 -2.3,-1.7 -3.2,-1.7 -0.9,0 -5,2.8 -4.7,1.2 0.2,-0.5 0.5,-0.7 1,-1 0.8,-0.7 2.5,-1.2 3.7,-1.3 2.5,-0.5 5.2,-0.3 7.5,0.8 3,1.5 4.9,4.4 5.5,7.4 0.5,2 1,5.4 0.3,7.4 -0.8,3.2 -6,-1.8 -7.2,-3.2 -0.8,-1.2 -0.5,-2.3 -0.7,-3.7 0,-2 -0.8,-4.2 -2.2,-5.9 z m 0.4,7.2 c -1.2,-0.3 -2.3,-1.3 -3.4,-1.8 -0.8,-0.5 -3,-1 -3.5,-1.7 -0.8,-1.3 1.8,-3.4 3.5,-3.5 0.2,0 0.8,0 1.5,1 1,1.3 2.4,4 1.9,6 z m -11.8,-9.2 c 0.7,0.5 2.7,2.8 2,3.7 -0.7,0.8 -4.2,-1.2 -5.2,-1.5 -0.7,-0.3 -1.7,-0.5 -2.2,-0.8 1.3,-1.2 3.9,-2.7 5.4,-1.4 z m -7,2.9 c 1,0.3 2.2,0.7 3.2,1 5.5,2 10.9,4.5 15.6,7.7 3,2 5.7,4.5 8.5,6.9 1,0.8 3,2.5 3.4,3.9 0.3,1.8 -2.2,3.5 -3.2,4.7 -2.5,2.8 -3.9,5.9 -4.4,9.4 -0.2,0.7 0.2,3.2 -1.2,1.2 -1.2,-2 -2.3,-3 -3.5,-4.9 -1.3,-2 -2.7,-4 -4.2,-5.9 -3.4,-3.7 -7,-6.9 -11.1,-9.9 -18.3,-12.9 -40.2,-17.9 -60.3,-17.3 18.9,-3.7 39.2,-2.8 56.8,2.7 l 0.4,0.5 z M 364.3,45.1 c 1.5,-1.2 3.7,-1.5 6.5,-1 1.2,0.2 2,0.7 2.5,1.3 0.8,1 2,4.2 0.5,5 -1.3,0.7 -5.9,-0.5 -7.4,-0.7 -1.2,0 -3.4,0.7 -4.2,-0.3 L 362,49.2 c -0.7,-1.3 1.3,-3.5 2.3,-4.1 z m 16.9,3 c 1.2,-0.8 3.2,-0.8 4.5,0.5 1.2,1 1.8,2.8 1.2,4.4 -1.3,-0.2 -2.8,-0.5 -4.2,-0.8 -0.8,-0.2 -1.5,-0.2 -1.8,-0.8 -0.9,-1.6 -0.5,-2.6 0.3,-3.3 z m -1.8,-6.2 c 0.8,-1.5 5.4,0.2 6.4,0.8 2.2,1.2 3.9,3.2 4.9,5.4 0.7,1.3 3,7.4 -0.3,5.9 -1.3,-0.7 -1,-0.2 -1,-1.5 -0.2,-2 -0.3,-3.7 -2,-5 -1.8,-1.7 -3.5,-0.8 -5.7,-1.5 -1.3,-0.6 -3,-2.9 -2.3,-4.1 z m -21.3,0.8 c 0.5,-1.2 3.7,-2.5 4.9,-3 3.2,-1.3 7.5,-1.7 10.9,-0.3 3.5,1.5 4.9,5 5.4,8.2 0.2,1 0.5,3.4 -1.2,3.7 -1.5,0.2 -1.7,-1.3 -1.7,-2.3 0,-1.5 -0.3,-3 -1.3,-4.4 -0.8,-1.2 -2.2,-2 -3.9,-2.2 -3.4,-0.5 -6,0 -8,1.5 -1,0.7 -1.5,2.7 -2.3,2.5 -1,-0.2 -3.3,-2.3 -2.8,-3.7 z m -8,3.2 c 1.5,-1.2 4.4,-1.5 6,-0.8 1.2,0.3 3.5,2.2 3.4,3.5 -0.2,1.7 -3.5,1 -5,1.2 -2.3,0.2 -3.5,0.2 -4.7,-2 -0.7,-1.2 -0.7,-1.2 0.3,-1.9 z M 337,42.2 c 2.5,1 5,2.2 7.4,3.5 0.8,0.5 4,2.7 4.2,3.5 0.2,1.8 -5.2,1.8 -6.5,1.7 -2.3,-0.3 -3.4,-2.3 -5.2,-3.5 -1.5,-1.2 -3.2,-2 -4.9,-2.8 -1.7,-0.8 -3.9,-1.3 -5.5,-1.7 -0.8,-0.2 -5.4,-0.3 -5.7,-1 -0.7,-1.3 4.4,-1.3 5.4,-1.3 3.3,-0.4 8.3,0.6 10.8,1.6 z m -22.3,-11 c 3,-1.5 7.7,-2.3 11.1,-0.5 4.7,2.7 3.9,7 3.5,8.7 -0.8,0 -1.5,0 -2.3,0 0,-1.8 -0.3,-5.7 -2.7,-7.4 -1,-0.8 -2.5,-1.2 -4,-0.8 -4.5,0.8 -6.4,4 -7,6.2 -1.2,-0.5 -2.3,-0.7 -3.2,-0.7 0.3,-2.2 1.9,-4.2 4.6,-5.5 z m -4.8,7.2 c 1.3,0 2.7,0.5 3.7,1.2 0.8,0.7 2,1.5 1.2,2.3 -1.7,1.5 -8.5,2.3 -9,-1 -0.5,-1.5 2.7,-2.5 4.1,-2.5 z m -11.1,1.8 c 1.7,0.2 3.2,0.8 4.5,1.7 0.5,0.3 2.3,1.2 2.3,1.8 0,1 -2.2,1.5 -3,2 -1.5,0.8 -1.5,1.2 -2.8,0.5 -2.3,-1 -3.5,-1.8 -6.4,-1.2 -1.8,0.5 -3.4,1.5 -4.2,2.8 -0.7,1 -0.3,2.3 -1.5,3 -1.2,-1.3 1,-6.2 3.7,-8 2.2,-1.6 5,-2.8 7.4,-2.6 z m -14.6,-2.5 c 0.8,-0.7 2,-0.8 3.5,-0.7 1.2,0.2 2.5,1 3.5,1.7 2,1.3 0.2,1.5 -1.3,2.8 -2.2,1.8 -3,2 -5.9,0.7 -2.3,-1.2 -1.8,-3 0.2,-4.5 z m -2.3,6.2 c 0.7,0 1.2,0 1.8,0 1,0.2 3,0.2 3.4,1.2 0.3,0.8 -0.7,4 -1.3,4.7 -0.8,0.7 -2.3,0 -3.4,0 -2.2,-0.2 -5.4,1.2 -5.2,-1.5 0,-1.5 1,-2.8 2.3,-3.5 0.7,-0.6 1.5,-0.7 2.4,-0.9 z M 272.5,41 c 1,-0.7 2.3,-0.5 3.5,-0.3 1.2,0.3 2.7,0.7 3.4,1.7 -0.8,0.8 -1.8,2 -3.2,2.3 -0.5,0.2 -5.2,0.3 -5.2,0.3 -0.5,-1.1 0.2,-3.1 1.5,-4 z m -5.2,8.3 c 0.7,-1.5 3.7,-2 5.2,-2.2 0.5,0 2,-0.5 2.3,-0.2 0.8,0.5 0.5,3 0,3.5 -0.7,1 -3.4,2.7 -4.5,3 -2,0.7 -3.8,-2.5 -3,-4.1 z m 13.2,15.4 c 1.8,0.3 3.5,1 5,1.8 0.5,0.3 2.3,1.2 2.3,1.8 0,0.8 -2.3,2.3 -3,2.5 -1.2,0.2 -1.2,-0.3 -2.2,-1.2 -1.5,-1.2 -3.5,-2 -5.7,-2.2 -2,-0.2 -6.2,0.5 -6.5,2.7 0,0 -2.3,0 -2.7,0 0.4,-4.6 9.1,-5.9 12.8,-5.4 z m -21.6,10.2 c 4.7,-2.7 10.2,-3.4 15.6,-2.2 2.2,0.3 5.9,1.5 3.7,3.4 -2.7,2.2 -3.4,3.7 -5.7,2.3 -4,-2.2 -7.9,-1.7 -11.9,0.2 -2.5,1.2 -4,3.4 -4.5,5.9 -0.3,1.7 0.7,3.5 0.5,5 -0.2,1.5 -3,3.4 -3.9,0.5 -0.3,-1.3 -0.5,-4 -0.3,-5.5 0.2,-3.9 2.8,-7.6 6.5,-9.6 z M 241,81.6 c 1.7,-2.5 5.7,-4.5 9,-4.5 5,0 1.7,2.7 0.2,6 -0.3,0.8 -2.2,0.5 -3.2,1.2 -0.8,0.5 -1.7,1.2 -2.2,2 -1.5,1.8 -2,4.2 -1.8,6.4 0,1.2 2.3,7.4 -0.5,6 -1.3,-0.7 -2.3,-6.2 -2.7,-8 -0.6,-3.2 -0.6,-6.6 1.2,-9.1 z m -2.5,12.1 c 0.8,1.2 1.3,2.8 2,4.2 0.2,0.5 0.8,1.5 0.7,2.2 -0.2,1 -1.2,1.3 -1.8,2.2 -0.3,0.5 -0.7,0.8 -1,0.8 -0.5,0.2 -1.2,-0.2 -2,-0.8 -1.2,-0.7 -2.3,-1.5 -2.8,-2.7 -0.5,-1 -0.5,-2.7 0.5,-4.2 0.7,-1.4 3,-3.6 4.4,-1.7 z m -6,-7.8 c 0.8,-0.3 3.7,-1 4.4,-0.7 1,0.5 1.3,5.2 0.5,5.9 -0.5,0.5 -3.4,2 -4,2.2 -0.3,0.2 -0.7,0.2 -1,0.2 -2,-0.2 -3.4,-2.7 -3.2,-4.5 0.1,-1.7 1.6,-2.6 3.3,-3.1 z m -2.7,8.4 c 2.7,0.3 1.2,4.5 1.8,6 0.2,0.3 0.3,0.5 0.3,1 -1,0.2 -1.8,-0.2 -2.8,-0.5 -0.8,-0.3 -1.5,-1 -1.7,-1.8 -0.2,-1.2 0.2,-2.7 0.8,-3.7 0.6,-0.5 0.7,-1 1.6,-1 z"
       id="path3442"
       inkscape:connector-curvature="0"
       style="fill:#ffffff" /></g></svg>